SplineFontDB: 3.0
FontName: Caulixtla008-Bold
FullName: Caulixtla008 Bold
FamilyName: Caulixtla008
Weight: Bold
Copyright: Copyright 2010, 2012 Adobe Systems Incorporated. All Rights Reserved.  OFL; Reserved name "Source"
Version: 008
ItalicAngle: 0
UnderlinePosition: -45
UnderlineWidth: 50
Ascent: 750
Descent: 250
InvalidEm: 0
sfntRevision: 0x00010ccc
LayerCount: 2
Layer: 0 1 "Back" 1
Layer: 1 1 "Fore" 0
XUID: [1021 590 -1373747595 4505]
BaseHoriz: 2 'ideo' 'romn'
BaseScript: 'DFLT' 1  -170 0
BaseScript: 'latn' 1  -170 0
StyleMap: 0x0020
FSType: 0
OS2Version: 3
OS2_WeightWidthSlopeOnly: 0
OS2_UseTypoMetrics: 0
CreationTime: 1366413351
ModificationTime: 1520614955
PfmFamily: 17
TTFWeight: 700
TTFWidth: 5
LineGap: 0
VLineGap: 0
Panose: 2 11 6 3 3 4 3 2 2 4
OS2TypoAscent: 750
OS2TypoAOffset: 0
OS2TypoDescent: -250
OS2TypoDOffset: 0
OS2TypoLinegap: 0
OS2WinAscent: 875
OS2WinAOffset: 0
OS2WinDescent: 250
OS2WinDOffset: 0
HheadAscent: 850
HheadAOffset: 0
HheadDescent: -250
HheadDOffset: 0
OS2SubXSize: 650
OS2SubYSize: 600
OS2SubXOff: 0
OS2SubYOff: 75
OS2SupXSize: 650
OS2SupYSize: 600
OS2SupXOff: 0
OS2SupYOff: 350
OS2StrikeYSize: 50
OS2StrikeYPos: 288
OS2CapHeight: 654
OS2XHeight: 491
OS2Vendor: 'ADBE'
OS2CodePages: 20000193.00000000
OS2UnicodeRanges: 20000007.00000001.00000000.00000000
Lookup: 1 0 0 "'aalt' Activar todas las variantes in Latin lookup 0" { "'aalt' Activar todas las variantes in Latin lookup 0 subtable"  } ['aalt' ('DFLT' <'dflt' > 'latn' <'AZE ' 'CRT ' 'TRK ' 'dflt' > ) ]
Lookup: 6 0 0 "'ccmp' Composici+APMA-n/descomposici+APMA-n de glifos in Latin lookup 1" { "'ccmp' Composici+APMA-n/descomposici+APMA-n de glifos in Latin lookup 1 contextual 0"  "'ccmp' Composici+APMA-n/descomposici+APMA-n de glifos in Latin lookup 1 contextual 1"  } ['ccmp' ('DFLT' <'dflt' > 'latn' <'AZE ' 'CRT ' 'TRK ' 'dflt' > ) ]

StartChar: .notdef
Encoding: 65536 -1 0
Width: 364
Flags: W
LayerCount: 2
Fore
SplineSet
33 0 m 1,0,-1
 33 666 l 1,1,-1
 298 666 l 1,2,-1
 298 0 l 1,3,-1
 33 0 l 1,0,-1
66 33 m 1,4,-1
 265 33 l 1,5,-1
 265 633 l 1,6,-1
 66 633 l 1,7,-1
 66 33 l 1,4,-1
EndSplineSet
EndChar

StartChar: exclam
Encoding: 33 33 6
Width: 315
GlyphClass: 2
Flags: W
LayerCount: 2
Fore
SplineSet
103 556 m 1,0,-1
 100 670 l 1,1,-1
 216 670 l 1,2,-1
 212 556 l 1,3,-1
 196 215 l 1,4,-1
 119 215 l 1,5,-1
 103 556 l 1,0,-1
83 66 m 256,6,7
 83 100 83 100 104.5 122 c 128,-1,8
 126 144 126 144 158 144 c 256,9,10
 190 144 190 144 211 122 c 128,-1,11
 232 100 232 100 232 66 c 256,12,13
 232 32 232 32 211 10 c 128,-1,14
 190 -12 190 -12 158 -12 c 256,15,16
 126 -12 126 -12 104.5 10 c 128,-1,17
 83 32 83 32 83 66 c 256,6,7
EndSplineSet
EndChar

StartChar: numbersign
Encoding: 35 35 8
Width: 513
GlyphClass: 2
Flags: W
LayerCount: 2
Fore
SplineSet
112 195 m 1,0,-1
 35 195 l 1,1,-1
 35 271 l 1,2,-1
 120 271 l 1,3,-1
 136 400 l 1,4,-1
 55 400 l 1,5,-1
 55 476 l 1,6,-1
 146 476 l 1,7,-1
 168 650 l 1,8,-1
 237 650 l 1,9,-1
 216 476 l 1,10,-1
 333 476 l 1,11,-1
 356 650 l 1,12,-1
 424 650 l 1,13,-1
 403 476 l 1,14,-1
 483 476 l 1,15,-1
 483 400 l 1,16,-1
 394 400 l 1,17,-1
 378 271 l 1,18,-1
 463 271 l 1,19,-1
 463 195 l 1,20,-1
 369 195 l 1,21,-1
 346 0 l 1,22,-1
 276 0 l 1,23,-1
 299 195 l 1,24,-1
 182 195 l 1,25,-1
 158 0 l 1,26,-1
 88 0 l 1,27,-1
 112 195 l 1,0,-1
308 271 m 1,28,-1
 324 400 l 1,29,-1
 206 400 l 1,30,-1
 190 271 l 1,31,-1
 308 271 l 1,28,-1
EndSplineSet
EndChar

StartChar: dollar
Encoding: 36 36 9
Width: 513
GlyphClass: 2
Flags: W
LayerCount: 2
Fore
SplineSet
384 501 m 1,0,1
 356 527 356 527 330 540.5 c 128,-1,2
 304 554 304 554 268 554 c 0,3,4
 227 554 227 554 204 533.5 c 128,-1,5
 181 513 181 513 181 474 c 0,6,7
 181 444 181 444 201 424.5 c 128,-1,8
 221 405 221 405 251.5 388.5 c 128,-1,9
 282 372 282 372 317 355.5 c 128,-1,10
 352 339 352 339 382.5 316 c 128,-1,11
 413 293 413 293 433 259.5 c 128,-1,12
 453 226 453 226 453 176 c 0,13,14
 453 104 453 104 413 55.5 c 128,-1,15
 373 7 373 7 298 -7 c 1,16,-1
 298 -110 l 1,17,-1
 218 -110 l 1,18,-1
 218 -10 l 1,19,20
 172 -5 172 -5 125.5 14.5 c 128,-1,21
 79 34 79 34 45 66 c 1,22,-1
 97 144 l 1,23,24
 132 116 132 116 168 99 c 128,-1,25
 204 82 204 82 245 82 c 0,26,27
 294 82 294 82 318 104.5 c 128,-1,28
 342 127 342 127 342 168 c 0,29,30
 342 201 342 201 322 223 c 128,-1,31
 302 245 302 245 271.5 263 c 128,-1,32
 241 281 241 281 206 297.5 c 128,-1,33
 171 314 171 314 140.5 336.5 c 128,-1,34
 110 359 110 359 90 390.5 c 128,-1,35
 70 422 70 422 70 469 c 0,36,37
 70 539 70 539 110 585.5 c 128,-1,38
 150 632 150 632 218 644 c 1,39,-1
 218 746 l 1,40,-1
 298 746 l 1,41,-1
 298 646 l 1,42,43
 346 640 346 640 380.5 618.5 c 128,-1,44
 415 597 415 597 443 568 c 1,45,-1
 384 501 l 1,0,1
EndSplineSet
EndChar

StartChar: ampersand
Encoding: 38 38 11
Width: 639
GlyphClass: 2
Flags: W
LayerCount: 2
Fore
SplineSet
138 179 m 0,0,1
 138 133 138 133 170 105 c 128,-1,2
 202 77 202 77 251 77 c 0,3,4
 278 77 278 77 304.5 87.5 c 128,-1,5
 331 98 331 98 356 116 c 1,6,7
 312 153 312 153 272.5 194.5 c 128,-1,8
 233 236 233 236 201 281 c 1,9,10
 173 258 173 258 155.5 233.5 c 128,-1,11
 138 209 138 209 138 179 c 0,0,1
207 504 m 0,12,13
 207 481 207 481 214 457.5 c 128,-1,14
 221 434 221 434 233 408 c 1,15,16
 274 434 274 434 302 461 c 128,-1,17
 330 488 330 488 330 526 c 0,18,19
 330 552 330 552 318 570 c 128,-1,20
 306 588 306 588 277 588 c 0,21,22
 246 588 246 588 226.5 565 c 128,-1,23
 207 542 207 542 207 504 c 0,12,13
593 -12 m 1,24,25
 555 -3 555 -3 515 14.5 c 128,-1,26
 475 32 475 32 434 58 c 1,27,28
 395 26 395 26 346 7 c 128,-1,29
 297 -12 297 -12 237 -12 c 0,30,31
 188 -12 188 -12 149.5 2.5 c 128,-1,32
 111 17 111 17 84 41.5 c 128,-1,33
 57 66 57 66 42.5 99.5 c 128,-1,34
 28 133 28 133 28 172 c 0,35,36
 28 206 28 206 38 233 c 128,-1,37
 48 260 48 260 65.5 282.5 c 128,-1,38
 83 305 83 305 105.5 323.5 c 128,-1,39
 128 342 128 342 153 359 c 1,40,41
 133 397 133 397 122 433 c 128,-1,42
 111 469 111 469 111 503 c 256,43,44
 111 537 111 537 122.5 566.5 c 128,-1,45
 134 596 134 596 156 618 c 128,-1,46
 178 640 178 640 208 653 c 128,-1,47
 238 666 238 666 276 666 c 0,48,49
 343 666 343 666 381.5 628 c 128,-1,50
 420 590 420 590 420 527 c 0,51,52
 420 495 420 495 408 468 c 128,-1,53
 396 441 396 441 376 418.5 c 128,-1,54
 356 396 356 396 330.5 376 c 128,-1,55
 305 356 305 356 278 337 c 1,56,57
 308 296 308 296 346.5 257.5 c 128,-1,58
 385 219 385 219 427 187 c 1,59,60
 454 223 454 223 475 266.5 c 128,-1,61
 496 310 496 310 510 361 c 1,62,-1
 616 361 l 1,63,64
 598 299 598 299 570 242 c 128,-1,65
 542 185 542 185 504 134 c 1,66,67
 536 114 536 114 566 100.5 c 128,-1,68
 596 87 596 87 622 82 c 1,69,-1
 593 -12 l 1,24,25
EndSplineSet
EndChar

StartChar: quotesingle
Encoding: 39 39 12
Width: 275
GlyphClass: 2
Flags: W
LayerCount: 2
Fore
SplineSet
82 575 m 1,0,-1
 78 688 l 1,1,-1
 196 688 l 1,2,-1
 193 575 l 1,3,-1
 170 392 l 1,4,-1
 104 392 l 1,5,-1
 82 575 l 1,0,-1
EndSplineSet
EndChar

StartChar: parenleft
Encoding: 40 40 13
Width: 324
GlyphClass: 2
Flags: W
LayerCount: 2
Fore
SplineSet
209 -178 m 1,0,1
 146 -75 146 -75 111.5 35 c 128,-1,2
 77 145 77 145 77 278 c 256,3,4
 77 411 77 411 111.5 521 c 128,-1,5
 146 631 146 631 209 734 c 1,6,-1
 281 702 l 1,7,8
 224 605 224 605 197.5 497 c 128,-1,9
 171 389 171 389 171 278 c 256,10,11
 171 167 171 167 197.5 59 c 128,-1,12
 224 -49 224 -49 281 -146 c 1,13,-1
 209 -178 l 1,14,-1
 209 -178 l 1,0,1
EndSplineSet
EndChar

StartChar: parenright
Encoding: 41 41 14
Width: 324
GlyphClass: 2
Flags: W
LayerCount: 2
Fore
SplineSet
43 -146 m 1,0,1
 100 -49 100 -49 126.5 59 c 128,-1,2
 153 167 153 167 153 278 c 256,3,4
 153 389 153 389 126.5 497 c 128,-1,5
 100 605 100 605 43 702 c 1,6,-1
 115 734 l 1,7,8
 178 631 178 631 212.5 521 c 128,-1,9
 247 411 247 411 247 278 c 256,10,11
 247 145 247 145 212.5 35 c 128,-1,12
 178 -75 178 -75 115 -178 c 1,13,-1
 43 -146 l 1,14,-1
 43 -146 l 1,0,1
EndSplineSet
EndChar

StartChar: asterisk
Encoding: 42 42 15
Width: 438
GlyphClass: 2
Flags: W
LayerCount: 2
Fore
SplineSet
92 421 m 1,0,-1
 150 519 l 1,1,-1
 48 564 l 1,2,-1
 67 624 l 1,3,-1
 176 599 l 1,4,-1
 187 712 l 1,5,-1
 250 712 l 1,6,-1
 261 599 l 1,7,-1
 371 624 l 1,8,-1
 390 564 l 1,9,-1
 287 519 l 1,10,-1
 345 421 l 1,11,-1
 294 384 l 1,12,-1
 219 471 l 1,13,-1
 143 384 l 1,14,-1
 92 421 l 1,0,-1
EndSplineSet
EndChar

StartChar: plus
Encoding: 43 43 16
Width: 513
GlyphClass: 2
Flags: W
LayerCount: 2
Fore
SplineSet
213 288 m 1,0,-1
 34 288 l 1,1,-1
 34 372 l 1,2,-1
 213 372 l 1,3,-1
 213 561 l 1,4,-1
 300 561 l 1,5,-1
 300 372 l 1,6,-1
 479 372 l 1,7,-1
 479 288 l 1,8,-1
 300 288 l 1,9,-1
 300 99 l 1,10,-1
 213 99 l 1,11,-1
 213 288 l 1,0,-1
EndSplineSet
EndChar

StartChar: comma
Encoding: 44 44 17
Width: 275
GlyphClass: 2
Flags: W
LayerCount: 2
Fore
SplineSet
47 -119 m 1,0,1
 95 -100 95 -100 121.5 -68 c 128,-1,2
 148 -36 148 -36 148 2 c 1,3,-1
 139 2 l 2,4,5
 110 2 110 2 87.5 20.5 c 128,-1,6
 65 39 65 39 65 73 c 0,7,8
 65 105 65 105 87.5 124.5 c 128,-1,9
 110 144 110 144 142 144 c 0,10,11
 183 144 183 144 205.5 113 c 128,-1,12
 228 82 228 82 228 26 c 0,13,14
 228 -48 228 -48 187.5 -102 c 128,-1,15
 147 -156 147 -156 72 -182 c 1,16,-1
 47 -119 l 1,0,1
EndSplineSet
EndChar

StartChar: hyphen
Encoding: 45 45 18
Width: 322
GlyphClass: 2
Flags: W
LayerCount: 2
Fore
SplineSet
42 294 m 1,0,-1
 280 294 l 1,1,-1
 280 210 l 1,2,-1
 42 210 l 1,3,-1
 42 294 l 1,0,-1
EndSplineSet
EndChar

StartChar: period
Encoding: 46 46 19
Width: 275
GlyphClass: 2
Flags: W
LayerCount: 2
Fore
SplineSet
63 66 m 256,0,1
 63 100 63 100 84.5 122 c 128,-1,2
 106 144 106 144 138 144 c 256,3,4
 170 144 170 144 191 122 c 128,-1,5
 212 100 212 100 212 66 c 256,6,7
 212 32 212 32 191 10 c 128,-1,8
 170 -12 170 -12 138 -12 c 256,9,10
 106 -12 106 -12 84.5 10 c 128,-1,11
 63 32 63 32 63 66 c 256,0,1
EndSplineSet
EndChar

StartChar: slash
Encoding: 47 47 20
Width: 344
GlyphClass: 2
Flags: W
LayerCount: 2
Fore
SplineSet
245 710 m 1,0,-1
 323 710 l 1,1,-1
 90 -160 l 1,2,-1
 12 -160 l 1,3,-1
 245 710 l 1,0,-1
EndSplineSet
EndChar

StartChar: zero
Encoding: 48 48 21
Width: 513
GlyphClass: 2
Flags: W
LayerCount: 2
Fore
SplineSet
256 -12 m 256,0,1
 156 -12 156 -12 98 73.5 c 128,-1,2
 40 159 40 159 40 321 c 256,3,4
 40 483 40 483 98 565.5 c 128,-1,5
 156 648 156 648 256 648 c 256,6,7
 356 648 356 648 414 565 c 128,-1,8
 472 482 472 482 472 321 c 0,9,10
 472 159 472 159 414 73.5 c 128,-1,11
 356 -12 356 -12 256 -12 c 256,0,1
256 78 m 256,12,13
 279 78 279 78 298.5 90.5 c 128,-1,14
 318 103 318 103 332 132 c 128,-1,15
 346 161 346 161 354 207 c 128,-1,16
 362 253 362 253 362 321 c 0,17,18
 362 388 362 388 354 433.5 c 128,-1,19
 346 479 346 479 332 507 c 128,-1,20
 318 535 318 535 298.5 546.5 c 128,-1,21
 279 558 279 558 256 558 c 256,22,23
 233 558 233 558 213.5 546.5 c 128,-1,24
 194 535 194 535 180 507 c 128,-1,25
 166 479 166 479 158 433.5 c 128,-1,26
 150 388 150 388 150 321 c 0,27,28
 150 253 150 253 158 207 c 128,-1,29
 166 161 166 161 180 132 c 128,-1,30
 194 103 194 103 213.5 90.5 c 128,-1,31
 233 78 233 78 256 78 c 256,12,13
EndSplineSet
Substitution2: "'dnom' Denominadores in Latin lookup 4 subtable" zero.dnom
EndChar

StartChar: one
Encoding: 49 49 22
Width: 513
GlyphClass: 2
Flags: W
LayerCount: 2
Fore
SplineSet
74 94 m 1,0,-1
 216 94 l 1,1,-1
 216 512 l 1,2,-1
 99 512 l 1,3,-1
 99 584 l 1,4,5
 147 593 147 593 181.5 605.5 c 128,-1,6
 216 618 216 618 246 636 c 1,7,-1
 332 636 l 1,8,-1
 332 94 l 1,9,-1
 457 94 l 1,10,-1
 457 0 l 1,11,-1
 74 0 l 1,12,-1
 74 94 l 1,0,-1
EndSplineSet
EndChar

StartChar: two
Encoding: 50 50 23
Width: 513
GlyphClass: 2
Flags: W
LayerCount: 2
Fore
SplineSet
38 67 m 1,0,1
 104 131 104 131 157.5 185 c 128,-1,2
 211 239 211 239 248.5 285 c 128,-1,3
 286 331 286 331 306 371 c 128,-1,4
 326 411 326 411 326 447 c 0,5,6
 326 498 326 498 299 527.5 c 128,-1,7
 272 557 272 557 221 557 c 0,8,9
 184 557 184 557 153.5 536 c 128,-1,10
 123 515 123 515 97 486 c 1,11,-1
 33 550 l 1,12,13
 77 597 77 597 123.5 622.5 c 128,-1,14
 170 648 170 648 236 648 c 0,15,16
 282 648 282 648 319 634 c 128,-1,17
 356 620 356 620 382 594.5 c 128,-1,18
 408 569 408 569 422.5 533 c 128,-1,19
 437 497 437 497 437 453 c 0,20,21
 437 411 437 411 418.5 367.5 c 128,-1,22
 400 324 400 324 368.5 279.5 c 128,-1,23
 337 235 337 235 295 188 c 128,-1,24
 253 141 253 141 206 91 c 1,25,26
 231 93 231 93 260 95.5 c 128,-1,27
 289 98 289 98 312 98 c 2,28,-1
 468 98 l 1,29,-1
 468 0 l 1,30,-1
 38 0 l 1,31,-1
 38 67 l 1,0,1
EndSplineSet
EndChar

StartChar: three
Encoding: 51 51 24
Width: 513
GlyphClass: 2
Flags: W
LayerCount: 2
Fore
SplineSet
79 152 m 1,0,1
 108 123 108 123 145 102.5 c 128,-1,2
 182 82 182 82 230 82 c 0,3,4
 282 82 282 82 314.5 107.5 c 128,-1,5
 347 133 347 133 347 178 c 0,6,7
 347 203 347 203 338 223 c 128,-1,8
 329 243 329 243 307.5 257 c 128,-1,9
 286 271 286 271 250 278.5 c 128,-1,10
 214 286 214 286 160 286 c 1,11,-1
 160 370 l 1,12,13
 207 370 207 370 238.5 377.5 c 128,-1,14
 270 385 270 385 289.5 398.5 c 128,-1,15
 309 412 309 412 317.5 431 c 128,-1,16
 326 450 326 450 326 472 c 0,17,18
 326 512 326 512 301 534.5 c 128,-1,19
 276 557 276 557 232 557 c 0,20,21
 194 557 194 557 163.5 540.5 c 128,-1,22
 133 524 133 524 104 497 c 1,23,-1
 45 568 l 1,24,25
 86 604 86 604 132.5 626 c 128,-1,26
 179 648 179 648 236 648 c 0,27,28
 282 648 282 648 320 637 c 128,-1,29
 358 626 358 626 385 604.5 c 128,-1,30
 412 583 412 583 427 551.5 c 128,-1,31
 442 520 442 520 442 480 c 0,32,33
 442 426 442 426 412.5 390 c 128,-1,34
 383 354 383 354 331 334 c 1,35,-1
 331 330 l 1,36,37
 388 315 388 315 425.5 275 c 128,-1,38
 463 235 463 235 463 172 c 0,39,40
 463 128 463 128 445.5 94 c 128,-1,41
 428 60 428 60 397.5 36.5 c 128,-1,42
 367 13 367 13 326.5 0.5 c 128,-1,43
 286 -12 286 -12 240 -12 c 0,44,45
 162 -12 162 -12 110 14 c 128,-1,46
 58 40 58 40 24 78 c 1,47,-1
 79 152 l 1,0,1
EndSplineSet
EndChar

StartChar: four
Encoding: 52 52 25
Width: 513
GlyphClass: 2
Flags: W
LayerCount: 2
Fore
SplineSet
299 253 m 1,0,-1
 299 397 l 2,1,2
 299 425 299 425 300.5 463 c 128,-1,3
 302 501 302 501 304 529 c 1,4,-1
 300 529 l 1,5,6
 288 504 288 504 275 480 c 128,-1,7
 262 456 262 456 248 430 c 2,8,-1
 132 253 l 1,9,-1
 299 253 l 1,0,-1
487 164 m 1,10,-1
 407 164 l 1,11,-1
 407 0 l 1,12,-1
 299 0 l 1,13,-1
 299 164 l 1,14,-1
 18 164 l 1,15,-1
 18 242 l 1,16,-1
 270 636 l 1,17,-1
 407 636 l 1,18,-1
 407 253 l 1,19,-1
 487 253 l 1,20,-1
 487 164 l 1,10,-1
EndSplineSet
EndChar

StartChar: five
Encoding: 53 53 26
Width: 513
GlyphClass: 2
Flags: W
LayerCount: 2
Fore
SplineSet
77 150 m 1,0,1
 106 123 106 123 142 102.5 c 128,-1,2
 178 82 178 82 226 82 c 0,3,4
 280 82 280 82 314.5 114 c 128,-1,5
 349 146 349 146 349 204 c 0,6,7
 349 261 349 261 317 292 c 128,-1,8
 285 323 285 323 232 323 c 0,9,10
 201 323 201 323 180 314.5 c 128,-1,11
 159 306 159 306 130 287 c 1,12,-1
 75 322 l 1,13,-1
 94 636 l 1,14,-1
 434 636 l 1,15,-1
 434 539 l 1,16,-1
 194 539 l 1,17,-1
 181 385 l 1,18,19
 201 395 201 395 220.5 400.5 c 128,-1,20
 240 406 240 406 265 406 c 0,21,22
 306 406 306 406 342.5 394 c 128,-1,23
 379 382 379 382 406 357.5 c 128,-1,24
 433 333 433 333 449 295.5 c 128,-1,25
 465 258 465 258 465 207 c 0,26,27
 465 155 465 155 446.5 114 c 128,-1,28
 428 73 428 73 397 45 c 128,-1,29
 366 17 366 17 325.5 2.5 c 128,-1,30
 285 -12 285 -12 241 -12 c 0,31,32
 164 -12 164 -12 111.5 14.5 c 128,-1,33
 59 41 59 41 24 76 c 1,34,-1
 77 150 l 1,0,1
EndSplineSet
EndChar

StartChar: six
Encoding: 54 54 27
Width: 513
GlyphClass: 2
Flags: W
LayerCount: 2
Fore
SplineSet
273 76 m 0,0,1
 313 76 313 76 340.5 107 c 128,-1,2
 368 138 368 138 368 197 c 0,3,4
 368 254 368 254 342 282 c 128,-1,5
 316 310 316 310 268 310 c 0,6,7
 241 310 241 310 211 293.5 c 128,-1,8
 181 277 181 277 154 237 c 1,9,10
 163 152 163 152 194.5 114 c 128,-1,11
 226 76 226 76 273 76 c 0,0,1
402 506 m 1,12,13
 385 527 385 527 357.5 540.5 c 128,-1,14
 330 554 330 554 301 554 c 0,15,16
 271 554 271 554 244.5 542 c 128,-1,17
 218 530 218 530 198 502.5 c 128,-1,18
 178 475 178 475 165.5 430 c 128,-1,19
 153 385 153 385 151 319 c 1,20,21
 179 354 179 354 216.5 374 c 128,-1,22
 254 394 254 394 289 394 c 0,23,24
 330 394 330 394 364.5 382 c 128,-1,25
 399 370 399 370 423.5 345.5 c 128,-1,26
 448 321 448 321 461.5 284 c 128,-1,27
 475 247 475 247 475 197 c 0,28,29
 475 149 475 149 459 110.5 c 128,-1,30
 443 72 443 72 416 45 c 128,-1,31
 389 18 389 18 352.5 3 c 128,-1,32
 316 -12 316 -12 275 -12 c 0,33,34
 228 -12 228 -12 186 6.5 c 128,-1,35
 144 25 144 25 112.5 63 c 128,-1,36
 81 101 81 101 62.5 160 c 128,-1,37
 44 219 44 219 44 299 c 0,38,39
 44 392 44 392 65 458 c 128,-1,40
 86 524 86 524 120.5 566 c 128,-1,41
 155 608 155 608 200 628 c 128,-1,42
 245 648 245 648 294 648 c 0,43,44
 352 648 352 648 393.5 627 c 128,-1,45
 435 606 435 606 464 576 c 1,46,-1
 402 506 l 1,12,13
EndSplineSet
EndChar

StartChar: seven
Encoding: 55 55 28
Width: 513
GlyphClass: 2
Flags: W
LayerCount: 2
Fore
SplineSet
168 0 m 1,0,1
 172 85 172 85 183 155.5 c 128,-1,2
 194 226 194 226 214.5 290 c 128,-1,3
 235 354 235 354 267 414.5 c 128,-1,4
 299 475 299 475 345 539 c 1,5,-1
 44 539 l 1,6,-1
 44 636 l 1,7,-1
 471 636 l 1,8,-1
 471 566 l 1,9,10
 415 497 415 497 380.5 434.5 c 128,-1,11
 346 372 346 372 326 306.5 c 128,-1,12
 306 241 306 241 297.5 167 c 128,-1,13
 289 93 289 93 285 0 c 1,14,-1
 168 0 l 1,15,-1
 168 0 l 1,0,1
EndSplineSet
EndChar

StartChar: eight
Encoding: 56 56 29
Width: 513
GlyphClass: 2
Flags: W
LayerCount: 2
Fore
SplineSet
142 175 m 0,0,1
 142 127 142 127 176 98.5 c 128,-1,2
 210 70 210 70 259 70 c 0,3,4
 305 70 305 70 334.5 95 c 128,-1,5
 364 120 364 120 364 165 c 0,6,7
 364 191 364 191 352 209.5 c 128,-1,8
 340 228 340 228 319.5 242.5 c 128,-1,9
 299 257 299 257 271 269 c 128,-1,10
 243 281 243 281 211 294 c 1,11,12
 181 272 181 272 161.5 242 c 128,-1,13
 142 212 142 212 142 175 c 0,0,1
299 359 m 1,14,15
 325 385 325 385 338.5 412 c 128,-1,16
 352 439 352 439 352 469 c 0,17,18
 352 511 352 511 327.5 538.5 c 128,-1,19
 303 566 303 566 258 566 c 0,20,21
 221 566 221 566 196 543.5 c 128,-1,22
 171 521 171 521 171 479 c 0,23,24
 171 455 171 455 181 437 c 128,-1,25
 191 419 191 419 208.5 405.5 c 128,-1,26
 226 392 226 392 249 380.5 c 128,-1,27
 272 369 272 369 299 359 c 1,14,15
41 163 m 0,28,29
 41 193 41 193 50.5 217.5 c 128,-1,30
 60 242 60 242 76 262 c 128,-1,31
 92 282 92 282 112.5 298 c 128,-1,32
 133 314 133 314 156 326 c 1,33,-1
 156 330 l 1,34,35
 119 356 119 356 93.5 392 c 128,-1,36
 68 428 68 428 68 479 c 0,37,38
 68 518 68 518 82.5 549 c 128,-1,39
 97 580 97 580 122.5 602 c 128,-1,40
 148 624 148 624 183.5 636 c 128,-1,41
 219 648 219 648 260 648 c 0,42,43
 303 648 303 648 337.5 635.5 c 128,-1,44
 372 623 372 623 396.5 600.5 c 128,-1,45
 421 578 421 578 434 546.5 c 128,-1,46
 447 515 447 515 447 476 c 0,47,48
 447 452 447 452 439.5 430.5 c 128,-1,49
 432 409 432 409 420 390.5 c 128,-1,50
 408 372 408 372 392.5 356.5 c 128,-1,51
 377 341 377 341 362 330 c 1,52,-1
 362 326 l 1,53,54
 384 314 384 314 404 298.5 c 128,-1,55
 424 283 424 283 439 263 c 128,-1,56
 454 243 454 243 463 218 c 128,-1,57
 472 193 472 193 472 161 c 0,58,59
 472 124 472 124 456.5 92.5 c 128,-1,60
 441 61 441 61 413 37.5 c 128,-1,61
 385 14 385 14 345 1 c 128,-1,62
 305 -12 305 -12 257 -12 c 0,63,64
 210 -12 210 -12 170.5 1 c 128,-1,65
 131 14 131 14 102.5 37 c 128,-1,66
 74 60 74 60 57.5 92 c 128,-1,67
 41 124 41 124 41 163 c 0,28,29
EndSplineSet
EndChar

StartChar: nine
Encoding: 57 57 30
Width: 513
GlyphClass: 2
Flags: W
LayerCount: 2
Fore
SplineSet
244 326 m 0,0,1
 271 326 271 326 301.5 343 c 128,-1,2
 332 360 332 360 358 400 c 1,3,4
 349 484 349 484 316.5 522 c 128,-1,5
 284 560 284 560 238 560 c 0,6,7
 199 560 199 560 171 529 c 128,-1,8
 143 498 143 498 143 440 c 0,9,10
 143 383 143 383 169.5 354.5 c 128,-1,11
 196 326 196 326 244 326 c 0,0,1
109 130 m 1,12,13
 127 109 127 109 154.5 95.5 c 128,-1,14
 182 82 182 82 211 82 c 0,15,16
 241 82 241 82 267.5 94 c 128,-1,17
 294 106 294 106 314 133.5 c 128,-1,18
 334 161 334 161 346.5 206 c 128,-1,19
 359 251 359 251 361 317 c 1,20,21
 333 282 333 282 295 262.5 c 128,-1,22
 257 243 257 243 222 243 c 0,23,24
 181 243 181 243 147 255 c 128,-1,25
 113 267 113 267 88.5 291.5 c 128,-1,26
 64 316 64 316 50.5 353 c 128,-1,27
 37 390 37 390 37 440 c 0,28,29
 37 488 37 488 53 526.5 c 128,-1,30
 69 565 69 565 96 592 c 128,-1,31
 123 619 123 619 159.5 633.5 c 128,-1,32
 196 648 196 648 237 648 c 0,33,34
 283 648 283 648 325 629.5 c 128,-1,35
 367 611 367 611 398.5 573 c 128,-1,36
 430 535 430 535 448.5 476.5 c 128,-1,37
 467 418 467 418 467 338 c 0,38,39
 467 245 467 245 446.5 179 c 128,-1,40
 426 113 426 113 391.5 70.5 c 128,-1,41
 357 28 357 28 311.5 8 c 128,-1,42
 266 -12 266 -12 217 -12 c 0,43,44
 160 -12 160 -12 118 9 c 128,-1,45
 76 30 76 30 47 60 c 1,46,-1
 109 130 l 1,12,13
EndSplineSet
EndChar

StartChar: less
Encoding: 60 60 33
Width: 513
GlyphClass: 2
Flags: W
LayerCount: 2
Fore
SplineSet
34 374 m 1,0,-1
 479 547 l 1,1,-1
 479 450 l 1,2,-1
 286 382 l 1,3,-1
 151 334 l 1,4,-1
 151 330 l 1,5,-1
 286 282 l 1,6,-1
 479 214 l 1,7,-1
 479 117 l 1,8,-1
 34 290 l 1,9,-1
 34 374 l 1,0,-1
EndSplineSet
EndChar

StartChar: greater
Encoding: 62 62 35
Width: 513
GlyphClass: 2
Flags: W
LayerCount: 2
Fore
SplineSet
479 290 m 1,0,-1
 34 117 l 1,1,-1
 34 214 l 1,2,-1
 227 282 l 1,3,-1
 362 330 l 1,4,-1
 362 334 l 1,5,-1
 227 382 l 1,6,-1
 34 450 l 1,7,-1
 34 547 l 1,8,-1
 479 374 l 1,9,-1
 479 290 l 1,0,-1
EndSplineSet
EndChar

StartChar: question
Encoding: 63 63 36
Width: 444
GlyphClass: 2
Flags: W
LayerCount: 2
Fore
SplineSet
157 215 m 1,0,1
 152 251 152 251 159.5 281 c 128,-1,2
 167 311 167 311 181.5 336 c 128,-1,3
 196 361 196 361 214.5 382.5 c 128,-1,4
 233 404 233 404 249.5 424.5 c 128,-1,5
 266 445 266 445 277 465 c 128,-1,6
 288 485 288 485 288 508 c 0,7,8
 288 544 288 544 266.5 566 c 128,-1,9
 245 588 245 588 207 588 c 0,10,11
 176 588 176 588 151 574 c 128,-1,12
 126 560 126 560 104 536 c 1,13,-1
 40 595 l 1,14,15
 72 633 72 633 116 657.5 c 128,-1,16
 160 682 160 682 215 682 c 0,17,18
 255 682 255 682 289 671.5 c 128,-1,19
 323 661 323 661 348 640 c 128,-1,20
 373 619 373 619 386.5 588 c 128,-1,21
 400 557 400 557 400 516 c 0,22,23
 400 484 400 484 388.5 458.5 c 128,-1,24
 377 433 377 433 360 410 c 128,-1,25
 343 387 343 387 323.5 366 c 128,-1,26
 304 345 304 345 288.5 322 c 128,-1,27
 273 299 273 299 263.5 273 c 128,-1,28
 254 247 254 247 258 215 c 1,29,-1
 157 215 l 1,0,1
134 66 m 256,30,31
 134 100 134 100 155 122 c 128,-1,32
 176 144 176 144 208 144 c 256,33,34
 240 144 240 144 261.5 122 c 128,-1,35
 283 100 283 100 283 66 c 256,36,37
 283 32 283 32 261.5 10 c 128,-1,38
 240 -12 240 -12 208 -12 c 256,39,40
 176 -12 176 -12 155 10 c 128,-1,41
 134 32 134 32 134 66 c 256,30,31
EndSplineSet
EndChar

StartChar: at
Encoding: 64 64 37
Width: 875
GlyphClass: 2
Flags: W
LayerCount: 2
Fore
SplineSet
50 204 m 0,0,1
 50 307 50 307 85 390.5 c 128,-1,2
 120 474 120 474 179 533.5 c 128,-1,3
 238 593 238 593 317 625.5 c 128,-1,4
 396 658 396 658 484 658 c 0,5,6
 562 658 562 658 625.5 633 c 128,-1,7
 689 608 689 608 733.5 562.5 c 128,-1,8
 778 517 778 517 802 453.5 c 128,-1,9
 826 390 826 390 826 314 c 0,10,11
 826 247 826 247 806.5 196.5 c 128,-1,12
 787 146 787 146 756 112 c 128,-1,13
 725 78 725 78 687 61 c 128,-1,14
 649 44 649 44 612 44 c 0,15,16
 569 44 569 44 539 63 c 128,-1,17
 509 82 509 82 502 120 c 1,18,-1
 500 120 l 1,19,20
 477 90 477 90 444 71 c 128,-1,21
 411 52 411 52 379 52 c 0,22,23
 324 52 324 52 288.5 90.5 c 128,-1,24
 253 129 253 129 253 198 c 0,25,26
 253 241 253 241 267.5 283.5 c 128,-1,27
 282 326 282 326 308 360 c 128,-1,28
 334 394 334 394 370 415.5 c 128,-1,29
 406 437 406 437 450 437 c 0,30,31
 502 437 502 437 528 388 c 1,32,-1
 530 388 l 1,33,-1
 543 429 l 1,34,-1
 616 429 l 1,35,-1
 573 218 l 1,36,37
 548 117 548 117 623 117 c 0,38,39
 646 117 646 117 669 130.5 c 128,-1,40
 692 144 692 144 710 169 c 128,-1,41
 728 194 728 194 739 229.5 c 128,-1,42
 750 265 750 265 750 310 c 0,43,44
 750 367 750 367 733.5 417 c 128,-1,45
 717 467 717 467 683.5 504.5 c 128,-1,46
 650 542 650 542 598 564 c 128,-1,47
 546 586 546 586 475 586 c 0,48,49
 409 586 409 586 347 559 c 128,-1,50
 285 532 285 532 237 482.5 c 128,-1,51
 189 433 189 433 159.5 363.5 c 128,-1,52
 130 294 130 294 130 208 c 0,53,54
 130 134 130 134 153 78 c 128,-1,55
 176 22 176 22 216 -15.5 c 128,-1,56
 256 -53 256 -53 310 -72 c 128,-1,57
 364 -91 364 -91 425 -91 c 0,58,59
 467 -91 467 -91 508 -79.5 c 128,-1,60
 549 -68 549 -68 582 -50 c 1,61,-1
 609 -114 l 1,62,63
 521 -164 521 -164 416 -164 c 0,64,65
 342 -164 342 -164 275.5 -141 c 128,-1,66
 209 -118 209 -118 159 -71.5 c 128,-1,67
 109 -25 109 -25 79.5 43.5 c 128,-1,68
 50 112 50 112 50 204 c 0,0,1
342 205 m 0,69,70
 342 164 342 164 358.5 145.5 c 128,-1,71
 375 127 375 127 403 127 c 0,72,73
 421 127 421 127 440 139 c 128,-1,74
 459 151 459 151 482 179 c 1,75,-1
 508 326 l 1,76,77
 486 361 486 361 453 361 c 0,78,79
 427 361 427 361 406.5 346 c 128,-1,80
 386 331 386 331 371.5 308 c 128,-1,81
 357 285 357 285 349.5 257.5 c 128,-1,82
 342 230 342 230 342 205 c 0,69,70
EndSplineSet
EndChar

StartChar: A
Encoding: 65 65 38
Width: 558
GlyphClass: 2
Flags: W
AnchorPoint: "Anclaje-0" 277 676 basechar 0
LayerCount: 2
Fore
SplineSet
361 268 m 1,0,-1
 338 348 l 2,1,2
 322 400 322 400 307.5 455 c 128,-1,3
 293 510 293 510 279 564 c 1,4,-1
 275 564 l 1,5,6
 261 509 261 509 247 454.5 c 128,-1,7
 233 400 233 400 217 348 c 2,8,-1
 194 268 l 1,9,-1
 361 268 l 1,0,-1
387 177 m 1,10,-1
 167 177 l 1,11,-1
 116 0 l 1,12,-1
 -2 0 l 1,13,-1
 211 654 l 1,14,-1
 347 654 l 1,15,-1
 560 0 l 1,16,-1
 438 0 l 1,17,-1
 387 177 l 1,10,-1
EndSplineSet
EndChar

StartChar: B
Encoding: 66 66 39
Width: 597
GlyphClass: 2
Flags: W
AnchorPoint: "Anclaje-0" 293 676 basechar 0
LayerCount: 2
Fore
SplineSet
83 654 m 1,0,-1
 292 654 l 2,1,2
 343 654 343 654 385.5 645.5 c 128,-1,3
 428 637 428 637 459.5 618.5 c 128,-1,4
 491 600 491 600 508.5 569 c 128,-1,5
 526 538 526 538 526 493 c 0,6,7
 526 446 526 446 498.5 406 c 128,-1,8
 471 366 471 366 414 351 c 1,9,-1
 414 347 l 1,10,11
 485 335 485 335 522.5 296.5 c 128,-1,12
 560 258 560 258 560 192 c 0,13,14
 560 143 560 143 541 107 c 128,-1,15
 522 71 522 71 488.5 47 c 128,-1,16
 455 23 455 23 409 11.5 c 128,-1,17
 363 0 363 0 309 0 c 2,18,-1
 83 0 l 1,19,-1
 83 654 l 1,0,-1
282 383 m 2,20,21
 351 383 351 383 381.5 408 c 128,-1,22
 412 433 412 433 412 479 c 0,23,24
 412 524 412 524 380 544 c 128,-1,25
 348 564 348 564 284 564 c 2,26,-1
 199 564 l 1,27,-1
 199 383 l 1,28,-1
 282 383 l 2,20,21
297 90 m 2,29,30
 369 90 369 90 408 117 c 128,-1,31
 447 144 447 144 447 200 c 0,32,33
 447 251 447 251 409 275.5 c 128,-1,34
 371 300 371 300 297 300 c 2,35,-1
 199 300 l 1,36,-1
 199 90 l 1,37,-1
 297 90 l 2,29,30
EndSplineSet
EndChar

StartChar: C
Encoding: 67 67 40
Width: 576
GlyphClass: 2
Flags: W
AnchorPoint: "Anclaje-0" 336 676 basechar 0
LayerCount: 2
Fore
SplineSet
49 325 m 0,0,1
 49 405 49 405 72.5 468.5 c 128,-1,2
 96 532 96 532 137 576 c 128,-1,3
 178 620 178 620 233 643 c 128,-1,4
 288 666 288 666 351 666 c 0,5,6
 411 666 411 666 458.5 641 c 128,-1,7
 506 616 506 616 537 583 c 1,8,-1
 472 511 l 1,9,10
 447 536 447 536 418.5 550.5 c 128,-1,11
 390 565 390 565 352 565 c 0,12,13
 311 565 311 565 277.5 548.5 c 128,-1,14
 244 532 244 532 219.5 501.5 c 128,-1,15
 195 471 195 471 181.5 427 c 128,-1,16
 168 383 168 383 168 328 c 0,17,18
 168 216 168 216 216.5 152.5 c 128,-1,19
 265 89 265 89 348 89 c 0,20,21
 392 89 392 89 424.5 106 c 128,-1,22
 457 123 457 123 485 154 c 1,23,-1
 550 83 l 1,24,25
 510 37 510 37 459 12.5 c 128,-1,26
 408 -12 408 -12 346 -12 c 0,27,28
 283 -12 283 -12 229 10 c 128,-1,29
 175 32 175 32 135 75 c 128,-1,30
 95 118 95 118 72 181 c 128,-1,31
 49 244 49 244 49 325 c 0,0,1
EndSplineSet
EndChar

StartChar: D
Encoding: 68 68 41
Width: 625
GlyphClass: 2
Flags: W
AnchorPoint: "Anclaje-0" 313 676 basechar 0
LayerCount: 2
Fore
SplineSet
83 654 m 1,0,-1
 258 654 l 2,1,2
 408 654 408 654 492 573 c 128,-1,3
 576 492 576 492 576 330 c 0,4,5
 576 249 576 249 554.5 187 c 128,-1,6
 533 125 533 125 492.5 83.5 c 128,-1,7
 452 42 452 42 394.5 21 c 128,-1,8
 337 0 337 0 264 0 c 2,9,-1
 83 0 l 1,10,-1
 83 654 l 1,0,-1
250 94 m 2,11,12
 350 94 350 94 403.5 151.5 c 128,-1,13
 457 209 457 209 457 330 c 0,14,15
 457 450 457 450 403 505 c 128,-1,16
 349 560 349 560 250 560 c 2,17,-1
 199 560 l 1,18,-1
 199 94 l 1,19,-1
 250 94 l 2,11,12
EndSplineSet
EndChar

StartChar: E
Encoding: 69 69 42
Width: 538
GlyphClass: 2
Flags: W
AnchorPoint: "Anclaje-0" 287 676 basechar 0
LayerCount: 2
Fore
SplineSet
83 654 m 1,0,-1
 477 654 l 1,1,-1
 477 556 l 1,2,-1
 199 556 l 1,3,-1
 199 389 l 1,4,-1
 434 389 l 1,5,-1
 434 291 l 1,6,-1
 199 291 l 1,7,-1
 199 98 l 1,8,-1
 487 98 l 1,9,-1
 487 0 l 1,10,-1
 83 0 l 1,11,-1
 83 654 l 1,0,-1
EndSplineSet
EndChar

StartChar: F
Encoding: 70 70 43
Width: 510
GlyphClass: 2
Flags: W
AnchorPoint: "Anclaje-0" 288 676 basechar 0
LayerCount: 2
Fore
SplineSet
83 654 m 1,0,-1
 478 654 l 1,1,-1
 478 556 l 1,2,-1
 199 556 l 1,3,-1
 199 371 l 1,4,-1
 437 371 l 1,5,-1
 437 273 l 1,6,-1
 199 273 l 1,7,-1
 199 0 l 1,8,-1
 83 0 l 1,9,-1
 83 654 l 1,0,-1
EndSplineSet
EndChar

StartChar: G
Encoding: 71 71 44
Width: 628
GlyphClass: 2
Flags: W
AnchorPoint: "Anclaje-0" 360 676 basechar 0
LayerCount: 2
Fore
SplineSet
49 325 m 0,0,1
 49 405 49 405 73 468.5 c 128,-1,2
 97 532 97 532 139 576 c 128,-1,3
 181 620 181 620 238 643 c 128,-1,4
 295 666 295 666 361 666 c 0,5,6
 395 666 395 666 424 659 c 128,-1,7
 453 652 453 652 477 640.5 c 128,-1,8
 501 629 501 629 521 614 c 128,-1,9
 541 599 541 599 556 583 c 1,10,-1
 492 511 l 1,11,12
 467 535 467 535 437.5 550 c 128,-1,13
 408 565 408 565 362 565 c 0,14,15
 318 565 318 565 282.5 548.5 c 128,-1,16
 247 532 247 532 221.5 501.5 c 128,-1,17
 196 471 196 471 182 427 c 128,-1,18
 168 383 168 383 168 328 c 0,19,20
 168 216 168 216 218.5 152.5 c 128,-1,21
 269 89 269 89 368 89 c 0,22,23
 396 89 396 89 421 96.5 c 128,-1,24
 446 104 446 104 462 118 c 1,25,-1
 462 259 l 1,26,-1
 338 259 l 1,27,-1
 338 354 l 1,28,-1
 566 354 l 1,29,-1
 566 66 l 1,30,31
 532 33 532 33 477 10.5 c 128,-1,32
 422 -12 422 -12 354 -12 c 0,33,34
 289 -12 289 -12 233 10 c 128,-1,35
 177 32 177 32 136 75 c 128,-1,36
 95 118 95 118 72 181 c 128,-1,37
 49 244 49 244 49 325 c 0,0,1
EndSplineSet
EndChar

StartChar: H
Encoding: 72 72 45
Width: 663
GlyphClass: 2
Flags: W
AnchorPoint: "Anclaje-0" 330 676 basechar 0
LayerCount: 2
Fore
SplineSet
83 654 m 1,0,-1
 199 654 l 1,1,-1
 199 391 l 1,2,-1
 464 391 l 1,3,-1
 464 654 l 1,4,-1
 580 654 l 1,5,-1
 580 0 l 1,6,-1
 464 0 l 1,7,-1
 464 290 l 1,8,-1
 199 290 l 1,9,-1
 199 0 l 1,10,-1
 83 0 l 1,11,-1
 83 654 l 1,0,-1
EndSplineSet
EndChar

StartChar: I
Encoding: 73 73 46
Width: 282
GlyphClass: 2
Flags: W
AnchorPoint: "Anclaje-0" 141 676 basechar 0
LayerCount: 2
Fore
SplineSet
83 654 m 1,0,-1
 199 654 l 1,1,-1
 199 0 l 1,2,-1
 83 0 l 1,3,-1
 83 654 l 1,0,-1
EndSplineSet
EndChar

StartChar: J
Encoding: 74 74 47
Width: 494
GlyphClass: 2
Flags: W
AnchorPoint: "Anclaje-0" 354 676 basechar 0
LayerCount: 2
Fore
SplineSet
104 158 m 1,0,1
 124 122 124 122 150 105.5 c 128,-1,2
 176 89 176 89 206 89 c 0,3,4
 252 89 252 89 275 117 c 128,-1,5
 298 145 298 145 298 215 c 2,6,-1
 298 654 l 1,7,-1
 414 654 l 1,8,-1
 414 205 l 2,9,10
 414 160 414 160 403 120.5 c 128,-1,11
 392 81 392 81 368 51.5 c 128,-1,12
 344 22 344 22 307 5 c 128,-1,13
 270 -12 270 -12 219 -12 c 0,14,15
 150 -12 150 -12 102.5 16 c 128,-1,16
 55 44 55 44 24 99 c 1,17,-1
 104 158 l 1,0,1
EndSplineSet
EndChar

StartChar: K
Encoding: 75 75 48
Width: 597
GlyphClass: 2
Flags: W
AnchorPoint: "Anclaje-0" 315 676 basechar 0
LayerCount: 2
Fore
SplineSet
83 654 m 1,0,-1
 199 654 l 1,1,-1
 199 357 l 1,2,-1
 202 357 l 1,3,-1
 435 654 l 1,4,-1
 564 654 l 1,5,-1
 363 399 l 1,6,-1
 598 0 l 1,7,-1
 470 0 l 1,8,-1
 293 308 l 1,9,-1
 199 191 l 1,10,-1
 199 0 l 1,11,-1
 83 0 l 1,12,-1
 83 654 l 1,0,-1
EndSplineSet
EndChar

StartChar: L
Encoding: 76 76 49
Width: 502
GlyphClass: 2
Flags: W
AnchorPoint: "Anclaje-0" 144 676 basechar 0
LayerCount: 2
Fore
SplineSet
83 654 m 1,0,-1
 199 654 l 1,1,-1
 199 98 l 1,2,-1
 471 98 l 1,3,-1
 471 0 l 1,4,-1
 83 0 l 1,5,-1
 83 654 l 1,0,-1
EndSplineSet
EndChar

StartChar: M
Encoding: 77 77 50
Width: 745
GlyphClass: 2
Flags: W
AnchorPoint: "Anclaje-0" 372 676 basechar 0
LayerCount: 2
Fore
SplineSet
83 654 m 1,0,-1
 211 654 l 1,1,-1
 329 332 l 1,2,-1
 372 208 l 1,3,-1
 376 208 l 1,4,-1
 418 332 l 1,5,-1
 534 654 l 1,6,-1
 662 654 l 1,7,-1
 662 0 l 1,8,-1
 553 0 l 1,9,-1
 553 299 l 2,10,11
 553 322 553 322 554.5 349 c 128,-1,12
 556 376 556 376 558 403.5 c 128,-1,13
 560 431 560 431 563 457.5 c 128,-1,14
 566 484 566 484 568 507 c 1,15,-1
 564 507 l 1,16,-1
 511 358 l 1,17,-1
 398 61 l 1,18,-1
 344 61 l 1,19,-1
 231 358 l 1,20,-1
 179 507 l 1,21,-1
 175 507 l 1,22,23
 177 484 177 484 179.5 457.5 c 128,-1,24
 182 431 182 431 184.5 403.5 c 128,-1,25
 187 376 187 376 188.5 349 c 128,-1,26
 190 322 190 322 190 299 c 2,27,-1
 190 0 l 1,28,-1
 83 0 l 1,29,-1
 83 654 l 1,0,-1
EndSplineSet
EndChar

StartChar: N
Encoding: 78 78 51
Width: 656
GlyphClass: 2
Flags: W
AnchorPoint: "Anclaje-0" 330 676 basechar 0
LayerCount: 2
Fore
SplineSet
83 654 m 1,0,-1
 202 654 l 1,1,-1
 406 286 l 1,2,-1
 473 147 l 1,3,-1
 477 147 l 1,4,5
 473 198 473 198 467.5 256.5 c 128,-1,6
 462 315 462 315 462 370 c 2,7,-1
 462 654 l 1,8,-1
 573 654 l 1,9,-1
 573 0 l 1,10,-1
 454 0 l 1,11,-1
 250 368 l 1,12,-1
 183 507 l 1,13,-1
 179 507 l 1,14,15
 183 455 183 455 188.5 398 c 128,-1,16
 194 341 194 341 194 286 c 2,17,-1
 194 0 l 1,18,-1
 83 0 l 1,19,-1
 83 654 l 1,0,-1
EndSplineSet
EndChar

StartChar: O
Encoding: 79 79 52
Width: 674
GlyphClass: 2
Flags: W
AnchorPoint: "Anclaje-0" 337 676 basechar 0
LayerCount: 2
Fore
SplineSet
337 -12 m 256,0,1
 273 -12 273 -12 220 11.5 c 128,-1,2
 167 35 167 35 129 79.5 c 128,-1,3
 91 124 91 124 70 187 c 128,-1,4
 49 250 49 250 49 330 c 0,5,6
 49 409 49 409 70 471.5 c 128,-1,7
 91 534 91 534 129 577 c 128,-1,8
 167 620 167 620 220 643 c 128,-1,9
 273 666 273 666 337 666 c 256,10,11
 401 666 401 666 454 643 c 128,-1,12
 507 620 507 620 545.5 577 c 128,-1,13
 584 534 584 534 605 471.5 c 128,-1,14
 626 409 626 409 626 330 c 0,15,16
 626 250 626 250 605 187 c 128,-1,17
 584 124 584 124 545.5 79.5 c 128,-1,18
 507 35 507 35 454 11.5 c 128,-1,19
 401 -12 401 -12 337 -12 c 256,0,1
337 89 m 256,20,21
 376 89 376 89 407 106 c 128,-1,22
 438 123 438 123 460 154.5 c 128,-1,23
 482 186 482 186 494 230.5 c 128,-1,24
 506 275 506 275 506 330 c 0,25,26
 506 440 506 440 460.5 502.5 c 128,-1,27
 415 565 415 565 337 565 c 256,28,29
 259 565 259 565 213.5 502.5 c 128,-1,30
 168 440 168 440 168 330 c 0,31,32
 168 275 168 275 180 230.5 c 128,-1,33
 192 186 192 186 214 154.5 c 128,-1,34
 236 123 236 123 267 106 c 128,-1,35
 298 89 298 89 337 89 c 256,20,21
EndSplineSet
EndChar

StartChar: P
Encoding: 80 80 53
Width: 592
GlyphClass: 2
Flags: W
AnchorPoint: "Anclaje-0" 309 676 basechar 0
LayerCount: 2
Fore
SplineSet
83 654 m 1,0,-1
 303 654 l 2,1,2
 357 654 357 654 402.5 644 c 128,-1,3
 448 634 448 634 481 610 c 128,-1,4
 514 586 514 586 533 547.5 c 128,-1,5
 552 509 552 509 552 452 c 0,6,7
 552 398 552 398 533 358 c 128,-1,8
 514 318 514 318 480.5 291.5 c 128,-1,9
 447 265 447 265 401.5 252.5 c 128,-1,10
 356 240 356 240 303 240 c 2,11,-1
 199 240 l 1,12,-1
 199 0 l 1,13,-1
 83 0 l 1,14,-1
 83 654 l 1,0,-1
294 333 m 2,15,16
 438 333 438 333 438 452 c 0,17,18
 438 514 438 514 402 537.5 c 128,-1,19
 366 561 366 561 294 561 c 2,20,-1
 199 561 l 1,21,-1
 199 333 l 1,22,-1
 294 333 l 2,15,16
EndSplineSet
EndChar

StartChar: Q
Encoding: 81 81 54
Width: 674
GlyphClass: 2
Flags: W
AnchorPoint: "Anclaje-0" 337 676 basechar 0
LayerCount: 2
Fore
SplineSet
168 330 m 0,0,1
 168 273 168 273 180 227 c 128,-1,2
 192 181 192 181 214 149 c 128,-1,3
 236 117 236 117 267 100 c 128,-1,4
 298 83 298 83 337 83 c 256,5,6
 376 83 376 83 407 100 c 128,-1,7
 438 117 438 117 460 149 c 128,-1,8
 482 181 482 181 494 227 c 128,-1,9
 506 273 506 273 506 330 c 0,10,11
 506 440 506 440 460.5 502.5 c 128,-1,12
 415 565 415 565 337 565 c 256,13,14
 259 565 259 565 213.5 502.5 c 128,-1,15
 168 440 168 440 168 330 c 0,0,1
650 -153 m 1,16,17
 633 -161 633 -161 606 -166 c 128,-1,18
 579 -171 579 -171 545 -171 c 0,19,20
 447 -171 447 -171 381 -125 c 128,-1,21
 315 -79 315 -79 283 -7 c 1,22,23
 230 2 230 2 187 29.5 c 128,-1,24
 144 57 144 57 113 100 c 128,-1,25
 82 143 82 143 65.5 201 c 128,-1,26
 49 259 49 259 49 330 c 0,27,28
 49 409 49 409 70 471.5 c 128,-1,29
 91 534 91 534 129 577 c 128,-1,30
 167 620 167 620 220 643 c 128,-1,31
 273 666 273 666 337 666 c 256,32,33
 401 666 401 666 454 643 c 128,-1,34
 507 620 507 620 545.5 577 c 128,-1,35
 584 534 584 534 605 471.5 c 128,-1,36
 626 409 626 409 626 330 c 0,37,38
 626 262 626 262 610.5 205.5 c 128,-1,39
 595 149 595 149 566 106 c 128,-1,40
 537 63 537 63 496.5 35 c 128,-1,41
 456 7 456 7 406 -4 c 1,42,43
 429 -43 429 -43 469.5 -60 c 128,-1,44
 510 -77 510 -77 558 -77 c 0,45,46
 580 -77 580 -77 597.5 -74 c 128,-1,47
 615 -71 615 -71 629 -66 c 1,48,-1
 650 -153 l 1,16,17
EndSplineSet
EndChar

StartChar: R
Encoding: 82 82 55
Width: 599
GlyphClass: 2
Flags: W
AnchorPoint: "Anclaje-0" 302 676 basechar 0
LayerCount: 2
Fore
SplineSet
199 348 m 1,0,-1
 292 348 l 2,1,2
 359 348 359 348 394.5 376 c 128,-1,3
 430 404 430 404 430 460 c 0,4,5
 430 517 430 517 394.5 539 c 128,-1,6
 359 561 359 561 292 561 c 2,7,-1
 199 561 l 1,8,-1
 199 348 l 1,0,-1
440 0 m 1,9,-1
 299 256 l 1,10,-1
 199 256 l 1,11,-1
 199 0 l 1,12,-1
 83 0 l 1,13,-1
 83 654 l 1,14,-1
 304 654 l 2,15,16
 355 654 355 654 399 644 c 128,-1,17
 443 634 443 634 475 611.5 c 128,-1,18
 507 589 507 589 525.5 552 c 128,-1,19
 544 515 544 515 544 460 c 0,20,21
 544 385 544 385 508.5 339 c 128,-1,22
 473 293 473 293 414 273 c 1,23,-1
 570 0 l 1,24,-1
 440 0 l 1,9,-1
EndSplineSet
EndChar

StartChar: S
Encoding: 83 83 56
Width: 545
GlyphClass: 2
Flags: W
AnchorPoint: "Anclaje-0" 285 676 basechar 0
LayerCount: 2
Fore
SplineSet
106 163 m 1,0,1
 141 130 141 130 186 109.5 c 128,-1,2
 231 89 231 89 276 89 c 0,3,4
 332 89 332 89 361 112 c 128,-1,5
 390 135 390 135 390 173 c 0,6,7
 390 193 390 193 382.5 207 c 128,-1,8
 375 221 375 221 361.5 231.5 c 128,-1,9
 348 242 348 242 329.5 251 c 128,-1,10
 311 260 311 260 289 269 c 2,11,-1
 199 308 l 2,12,13
 175 318 175 318 151.5 333 c 128,-1,14
 128 348 128 348 109 369 c 128,-1,15
 90 390 90 390 78.5 418 c 128,-1,16
 67 446 67 446 67 482 c 0,17,18
 67 521 67 521 83.5 554.5 c 128,-1,19
 100 588 100 588 129 613 c 128,-1,20
 158 638 158 638 198.5 652 c 128,-1,21
 239 666 239 666 287 666 c 0,22,23
 344 666 344 666 397 643.5 c 128,-1,24
 450 621 450 621 488 583 c 1,25,-1
 429 509 l 1,26,27
 397 535 397 535 363 550 c 128,-1,28
 329 565 329 565 287 565 c 0,29,30
 240 565 240 565 212 544.5 c 128,-1,31
 184 524 184 524 184 488 c 0,32,33
 184 469 184 469 192.5 455.5 c 128,-1,34
 201 442 201 442 215.5 431.5 c 128,-1,35
 230 421 230 421 249 412.5 c 128,-1,36
 268 404 268 404 288 396 c 2,37,-1
 377 359 l 2,38,39
 406 347 406 347 430 331 c 128,-1,40
 454 315 454 315 471.5 294 c 128,-1,41
 489 273 489 273 499 245.5 c 128,-1,42
 509 218 509 218 509 182 c 0,43,44
 509 142 509 142 493 107 c 128,-1,45
 477 72 477 72 446.5 45.5 c 128,-1,46
 416 19 416 19 372.5 3.5 c 128,-1,47
 329 -12 329 -12 274 -12 c 0,48,49
 208 -12 208 -12 146.5 13 c 128,-1,50
 85 38 85 38 38 84 c 1,51,-1
 106 163 l 1,0,1
EndSplineSet
EndChar

StartChar: T
Encoding: 84 84 57
Width: 546
GlyphClass: 2
Flags: W
AnchorPoint: "Anclaje-0" 272 676 basechar 0
LayerCount: 2
Fore
SplineSet
215 556 m 1,0,-1
 26 556 l 1,1,-1
 26 654 l 1,2,-1
 520 654 l 1,3,-1
 520 556 l 1,4,-1
 331 556 l 1,5,-1
 331 0 l 1,6,-1
 215 0 l 1,7,-1
 215 556 l 1,0,-1
EndSplineSet
EndChar

StartChar: U
Encoding: 85 85 58
Width: 655
GlyphClass: 2
Flags: W
AnchorPoint: "Anclaje-0" 327 676 basechar 0
LayerCount: 2
Fore
SplineSet
80 654 m 1,0,-1
 196 654 l 1,1,-1
 196 278 l 2,2,3
 196 225 196 225 205.5 188.5 c 128,-1,4
 215 152 215 152 232.5 130 c 128,-1,5
 250 108 250 108 274 98.5 c 128,-1,6
 298 89 298 89 328 89 c 256,7,8
 358 89 358 89 383 98.5 c 128,-1,9
 408 108 408 108 426 130 c 128,-1,10
 444 152 444 152 454 188.5 c 128,-1,11
 464 225 464 225 464 278 c 2,12,-1
 464 654 l 1,13,-1
 575 654 l 1,14,-1
 575 287 l 2,15,16
 575 206 575 206 558 149.5 c 128,-1,17
 541 93 541 93 508.5 57 c 128,-1,18
 476 21 476 21 430.5 4.5 c 128,-1,19
 385 -12 385 -12 328 -12 c 256,20,21
 271 -12 271 -12 225.5 4.5 c 128,-1,22
 180 21 180 21 147.5 57 c 128,-1,23
 115 93 115 93 97.5 149.5 c 128,-1,24
 80 206 80 206 80 287 c 2,25,-1
 80 654 l 1,0,-1
EndSplineSet
EndChar

StartChar: V
Encoding: 86 86 59
Width: 536
GlyphClass: 2
Flags: W
AnchorPoint: "Anclaje-0" 268 676 basechar 0
LayerCount: 2
Fore
SplineSet
-4 654 m 1,0,-1
 119 654 l 1,1,-1
 211 325 l 2,2,3
 227 269 227 269 239.5 219 c 128,-1,4
 252 169 252 169 269 112 c 1,5,-1
 273 112 l 1,6,7
 290 169 290 169 302.5 219 c 128,-1,8
 315 269 315 269 330 325 c 2,9,-1
 421 654 l 1,10,-1
 540 654 l 1,11,-1
 337 0 l 1,12,-1
 200 0 l 1,13,-1
 -4 654 l 1,0,-1
EndSplineSet
EndChar

StartChar: W
Encoding: 87 87 60
Width: 800
GlyphClass: 2
Flags: W
AnchorPoint: "Anclaje-0" 400 676 basechar 0
LayerCount: 2
Fore
SplineSet
18 654 m 1,0,-1
 137 654 l 1,1,-1
 194 324 l 2,2,3
 202 271 202 271 210 219 c 128,-1,4
 218 167 218 167 226 115 c 1,5,-1
 230 115 l 1,6,7
 241 167 241 167 251.5 219.5 c 128,-1,8
 262 272 262 272 273 324 c 2,9,-1
 353 654 l 1,10,-1
 454 654 l 1,11,-1
 534 324 l 2,12,13
 545 273 545 273 556 220.5 c 128,-1,14
 567 168 567 168 578 115 c 1,15,-1
 582 115 l 1,16,17
 590 168 590 168 597.5 220 c 128,-1,18
 605 272 605 272 613 324 c 2,19,-1
 670 654 l 1,20,-1
 781 654 l 1,21,-1
 656 0 l 1,22,-1
 512 0 l 1,23,-1
 431 344 l 2,24,25
 423 382 423 382 415.5 419.5 c 128,-1,26
 408 457 408 457 402 495 c 1,27,-1
 398 495 l 1,28,29
 391 457 391 457 383.5 419.5 c 128,-1,30
 376 382 376 382 368 344 c 2,31,-1
 289 0 l 1,32,-1
 148 0 l 1,33,-1
 18 654 l 1,0,-1
EndSplineSet
EndChar

StartChar: X
Encoding: 88 88 61
Width: 541
GlyphClass: 2
Flags: W
AnchorPoint: "Anclaje-0" 271 676 basechar 0
LayerCount: 2
Fore
SplineSet
199 337 m 1,0,-1
 25 654 l 1,1,-1
 154 654 l 1,2,-1
 226 509 l 2,3,4
 238 486 238 486 249.5 462 c 128,-1,5
 261 438 261 438 276 409 c 1,6,-1
 280 409 l 1,7,8
 292 438 292 438 302.5 462 c 128,-1,9
 313 486 313 486 324 509 c 2,10,-1
 393 654 l 1,11,-1
 516 654 l 1,12,-1
 342 332 l 1,13,-1
 528 0 l 1,14,-1
 399 0 l 1,15,-1
 319 154 l 2,16,17
 306 180 306 180 293.5 205.5 c 128,-1,18
 281 231 281 231 266 261 c 1,19,-1
 262 261 l 1,20,21
 249 231 249 231 237.5 205.5 c 128,-1,22
 226 180 226 180 214 154 c 2,23,-1
 136 0 l 1,24,-1
 13 0 l 1,25,-1
 199 337 l 1,0,-1
EndSplineSet
EndChar

StartChar: Y
Encoding: 89 89 62
Width: 501
GlyphClass: 2
Flags: W
AnchorPoint: "Anclaje-0" 250 676 basechar 0
LayerCount: 2
Fore
SplineSet
192 243 m 1,0,-1
 -4 654 l 1,1,-1
 120 654 l 1,2,-1
 191 487 l 2,3,4
 205 450 205 450 219 415.5 c 128,-1,5
 233 381 233 381 249 343 c 1,6,-1
 253 343 l 1,7,8
 269 381 269 381 284 415.5 c 128,-1,9
 299 450 299 450 313 487 c 2,10,-1
 384 654 l 1,11,-1
 505 654 l 1,12,-1
 308 243 l 1,13,-1
 308 0 l 1,14,-1
 192 0 l 1,15,-1
 192 243 l 1,0,-1
EndSplineSet
EndChar

StartChar: Z
Encoding: 90 90 63
Width: 540
GlyphClass: 2
Flags: W
AnchorPoint: "Anclaje-0" 282 676 basechar 0
LayerCount: 2
Fore
SplineSet
40 70 m 1,0,-1
 356 556 l 1,1,-1
 69 556 l 1,2,-1
 69 654 l 1,3,-1
 500 654 l 1,4,-1
 500 584 l 1,5,-1
 183 98 l 1,6,-1
 502 98 l 1,7,-1
 502 0 l 1,8,-1
 40 0 l 1,9,-1
 40 70 l 1,0,-1
EndSplineSet
EndChar

StartChar: bracketleft
Encoding: 91 91 64
Width: 324
GlyphClass: 2
Flags: W
LayerCount: 2
Fore
SplineSet
90 708 m 1,0,-1
 286 708 l 1,1,-1
 286 645 l 1,2,-1
 177 645 l 1,3,-1
 177 -89 l 1,4,-1
 286 -89 l 1,5,-1
 286 -152 l 1,6,-1
 90 -152 l 1,7,-1
 90 708 l 1,0,-1
EndSplineSet
EndChar

StartChar: backslash
Encoding: 92 92 65
Width: 344
GlyphClass: 2
Flags: W
LayerCount: 2
Fore
SplineSet
21 710 m 1,0,-1
 99 710 l 1,1,-1
 333 -160 l 1,2,-1
 255 -160 l 1,3,-1
 21 710 l 1,0,-1
EndSplineSet
EndChar

StartChar: bracketright
Encoding: 93 93 66
Width: 324
GlyphClass: 2
Flags: W
LayerCount: 2
Fore
SplineSet
147 -89 m 1,0,-1
 147 645 l 1,1,-1
 38 645 l 1,2,-1
 38 708 l 1,3,-1
 234 708 l 1,4,-1
 234 -152 l 1,5,-1
 38 -152 l 1,6,-1
 38 -89 l 1,7,-1
 147 -89 l 1,0,-1
EndSplineSet
EndChar

StartChar: asciicircum
Encoding: 94 94 67
Width: 513
GlyphClass: 2
Flags: W
LayerCount: 2
Fore
SplineSet
208 670 m 1,0,-1
 304 670 l 1,1,-1
 458 279 l 1,2,-1
 361 279 l 1,3,-1
 306 430 l 1,4,-1
 258 565 l 1,5,-1
 254 565 l 1,6,-1
 207 430 l 1,7,-1
 152 279 l 1,8,-1
 55 279 l 1,9,-1
 208 670 l 1,0,-1
EndSplineSet
EndChar

StartChar: underscore
Encoding: 95 95 68
Width: 500
GlyphClass: 2
Flags: W
LayerCount: 2
Fore
SplineSet
488 -64 m 1,0,-1
 488 -133 l 1,1,-1
 12 -133 l 1,2,-1
 12 -64 l 1,3,-1
 488 -64 l 1,0,-1
EndSplineSet
EndChar

StartChar: a
Encoding: 97 97 70
Width: 523
GlyphClass: 2
Flags: W
AnchorPoint: "Anclaje-0" 275 513 basechar 0
LayerCount: 2
Fore
SplineSet
52 132 m 0,0,1
 52 211 52 211 121 254 c 128,-1,2
 190 297 190 297 341 314 c 1,3,4
 341 333 341 333 336 350.5 c 128,-1,5
 331 368 331 368 320.5 381.5 c 128,-1,6
 310 395 310 395 293.5 402.5 c 128,-1,7
 277 410 277 410 252 410 c 0,8,9
 215 410 215 410 180.5 396 c 128,-1,10
 146 382 146 382 114 362 c 1,11,-1
 72 439 l 1,12,13
 113 465 113 465 163.5 484 c 128,-1,14
 214 503 214 503 273 503 c 0,15,16
 366 503 366 503 411 448.5 c 128,-1,17
 456 394 456 394 456 291 c 2,18,-1
 456 0 l 1,19,-1
 362 0 l 1,20,-1
 353 54 l 1,21,-1
 350 54 l 1,22,23
 317 26 317 26 279.5 7 c 128,-1,24
 242 -12 242 -12 198 -12 c 0,25,26
 133 -12 133 -12 92.5 27.5 c 128,-1,27
 52 67 52 67 52 132 c 0,0,1
164 141 m 0,28,29
 164 108 164 108 183.5 93 c 128,-1,30
 203 78 203 78 234 78 c 0,31,32
 264 78 264 78 289 92 c 128,-1,33
 314 106 314 106 341 132 c 1,34,-1
 341 242 l 1,35,36
 291 236 291 236 257 226 c 128,-1,37
 223 216 223 216 202.5 203.5 c 128,-1,38
 182 191 182 191 173 175 c 128,-1,39
 164 159 164 159 164 141 c 0,28,29
EndSplineSet
EndChar

StartChar: b
Encoding: 98 98 71
Width: 564
GlyphClass: 2
Flags: W
AnchorPoint: "Anclaje-0" 133 730 basechar 0
LayerCount: 2
Fore
SplineSet
73 706 m 1,0,-1
 188 706 l 1,1,-1
 188 524 l 1,2,-1
 185 442 l 1,3,4
 216 469 216 469 252.5 486 c 128,-1,5
 289 503 289 503 327 503 c 0,6,7
 373 503 373 503 409 485.5 c 128,-1,8
 445 468 445 468 470 435.5 c 128,-1,9
 495 403 495 403 508 357 c 128,-1,10
 521 311 521 311 521 254 c 0,11,12
 521 191 521 191 503.5 141.5 c 128,-1,13
 486 92 486 92 457 58 c 128,-1,14
 428 24 428 24 390 6 c 128,-1,15
 352 -12 352 -12 311 -12 c 0,16,17
 277 -12 277 -12 242.5 4 c 128,-1,18
 208 20 208 20 177 50 c 1,19,-1
 174 50 l 1,20,-1
 164 0 l 1,21,-1
 73 0 l 1,22,-1
 73 706 l 1,0,-1
188 124 m 1,23,24
 214 101 214 101 239.5 92 c 128,-1,25
 265 83 265 83 287 83 c 0,26,27
 336 83 336 83 369 125.5 c 128,-1,28
 402 168 402 168 402 252 c 0,29,30
 402 326 402 326 377 367 c 128,-1,31
 352 408 352 408 296 408 c 0,32,33
 244 408 244 408 188 353 c 1,34,-1
 188 124 l 1,23,24
EndSplineSet
EndChar

StartChar: c
Encoding: 99 99 72
Width: 462
GlyphClass: 2
Flags: W
AnchorPoint: "Anclaje-0" 281 513 basechar 0
LayerCount: 2
Fore
SplineSet
41 245 m 256,0,1
 41 306 41 306 61 354 c 128,-1,2
 81 402 81 402 115 435 c 128,-1,3
 149 468 149 468 193.5 485.5 c 128,-1,4
 238 503 238 503 287 503 c 0,5,6
 335 503 335 503 370.5 486.5 c 128,-1,7
 406 470 406 470 431 446 c 1,8,-1
 376 373 l 1,9,10
 356 390 356 390 336 399.5 c 128,-1,11
 316 409 316 409 293 409 c 0,12,13
 233 409 233 409 196 364.5 c 128,-1,14
 159 320 159 320 159 245 c 0,15,16
 159 171 159 171 195.5 126.5 c 128,-1,17
 232 82 232 82 290 82 c 0,18,19
 320 82 320 82 345.5 94.5 c 128,-1,20
 371 107 371 107 391 124 c 1,21,-1
 439 51 l 1,22,23
 404 20 404 20 362 4 c 128,-1,24
 320 -12 320 -12 278 -12 c 0,25,26
 228 -12 228 -12 184.5 5 c 128,-1,27
 141 22 141 22 109 55 c 128,-1,28
 77 88 77 88 59 136 c 128,-1,29
 41 184 41 184 41 245 c 256,0,1
EndSplineSet
EndChar

StartChar: d
Encoding: 100 100 73
Width: 564
GlyphClass: 2
Flags: W
AnchorPoint: "Anclaje-0" 400 730 basechar 0
LayerCount: 2
Fore
SplineSet
43 245 m 0,0,1
 43 305 43 305 60.5 353 c 128,-1,2
 78 401 78 401 107 434 c 128,-1,3
 136 467 136 467 173.5 485 c 128,-1,4
 211 503 211 503 251 503 c 0,5,6
 293 503 293 503 322 488.5 c 128,-1,7
 351 474 351 474 380 449 c 1,8,-1
 376 528 l 1,9,-1
 376 706 l 1,10,-1
 491 706 l 1,11,-1
 491 0 l 1,12,-1
 396 0 l 1,13,-1
 388 53 l 1,14,-1
 384 53 l 1,15,16
 357 26 357 26 321 7 c 128,-1,17
 285 -12 285 -12 245 -12 c 0,18,19
 152 -12 152 -12 97.5 55.5 c 128,-1,20
 43 123 43 123 43 245 c 0,0,1
162 246 m 0,21,22
 162 166 162 166 190.5 124.5 c 128,-1,23
 219 83 219 83 273 83 c 0,24,25
 328 83 328 83 376 138 c 1,26,-1
 376 367 l 1,27,28
 350 390 350 390 325.5 399 c 128,-1,29
 301 408 301 408 276 408 c 0,30,31
 228 408 228 408 195 366 c 128,-1,32
 162 324 162 324 162 246 c 0,21,22
EndSplineSet
EndChar

StartChar: e
Encoding: 101 101 74
Width: 507
GlyphClass: 2
Flags: W
AnchorPoint: "Anclaje-0" 267 513 basechar 0
LayerCount: 2
Fore
SplineSet
41 245 m 0,0,1
 41 305 41 305 60 353 c 128,-1,2
 79 401 79 401 110.5 434 c 128,-1,3
 142 467 142 467 183 485 c 128,-1,4
 224 503 224 503 267 503 c 0,5,6
 317 503 317 503 355 486 c 128,-1,7
 393 469 393 469 418.5 438 c 128,-1,8
 444 407 444 407 457 364 c 128,-1,9
 470 321 470 321 470 270 c 0,10,11
 470 236 470 236 465 216 c 1,12,-1
 153 216 l 1,13,14
 161 149 161 149 199.5 113 c 128,-1,15
 238 77 238 77 298 77 c 0,16,17
 330 77 330 77 357.5 86.5 c 128,-1,18
 385 96 385 96 412 113 c 1,19,-1
 451 41 l 1,20,21
 416 18 416 18 373 3 c 128,-1,22
 330 -12 330 -12 283 -12 c 0,23,24
 232 -12 232 -12 188 5.5 c 128,-1,25
 144 23 144 23 111 56 c 128,-1,26
 78 89 78 89 59.5 136.5 c 128,-1,27
 41 184 41 184 41 245 c 0,0,1
370 289 m 1,28,29
 370 348 370 348 345.5 381 c 128,-1,30
 321 414 321 414 270 414 c 0,31,32
 226 414 226 414 193 382.5 c 128,-1,33
 160 351 160 351 152 289 c 1,34,-1
 370 289 l 1,28,29
EndSplineSet
EndChar

StartChar: f
Encoding: 102 102 75
Width: 317
GlyphClass: 2
Flags: W
AnchorPoint: "Anclaje-0" 223 741 basechar 0
LayerCount: 2
Fore
SplineSet
324 615 m 1,0,1
 297 627 297 627 270 627 c 0,2,3
 208 627 208 627 208 544 c 2,4,-1
 208 491 l 1,5,-1
 304 491 l 1,6,-1
 304 400 l 1,7,-1
 208 400 l 1,8,-1
 208 0 l 1,9,-1
 93 0 l 1,10,-1
 93 400 l 1,11,-1
 27 400 l 1,12,-1
 27 486 l 1,13,-1
 93 491 l 1,14,-1
 93 542 l 2,15,16
 93 580 93 580 102 612.5 c 128,-1,17
 111 645 111 645 131 668.5 c 128,-1,18
 151 692 151 692 181.5 705 c 128,-1,19
 212 718 212 718 256 718 c 0,20,21
 282 718 282 718 305.5 713 c 128,-1,22
 329 708 329 708 346 701 c 1,23,-1
 324 615 l 1,0,1
EndSplineSet
EndChar

StartChar: h
Encoding: 104 104 77
Width: 558
GlyphClass: 2
Flags: W
AnchorPoint: "Anclaje-0" 130 730 basechar 0
LayerCount: 2
Fore
SplineSet
73 706 m 1,0,-1
 188 706 l 1,1,-1
 188 524 l 1,2,-1
 184 429 l 1,3,4
 215 458 215 458 252.5 480.5 c 128,-1,5
 290 503 290 503 341 503 c 0,6,7
 420 503 420 503 456 452.5 c 128,-1,8
 492 402 492 402 492 308 c 2,9,-1
 492 0 l 1,10,-1
 377 0 l 1,11,-1
 377 293 l 2,12,13
 377 354 377 354 359 379 c 128,-1,14
 341 404 341 404 300 404 c 0,15,16
 268 404 268 404 243.5 388.5 c 128,-1,17
 219 373 219 373 188 343 c 1,18,-1
 188 0 l 1,19,-1
 73 0 l 1,20,-1
 73 706 l 1,0,-1
EndSplineSet
EndChar

StartChar: i
Encoding: 105 105 78
Width: 262
GlyphClass: 2
Flags: W
AnchorPoint: "Anclaje-0" 130 709 basechar 0
LayerCount: 2
Fore
SplineSet
131 577 m 256,0,1
 100 577 100 577 80 595 c 128,-1,2
 60 613 60 613 60 642 c 256,3,4
 60 671 60 671 80 689.5 c 128,-1,5
 100 708 100 708 131 708 c 256,6,7
 162 708 162 708 182 689.5 c 128,-1,8
 202 671 202 671 202 642 c 256,9,10
 202 613 202 613 182 595 c 128,-1,11
 162 577 162 577 131 577 c 256,0,1
73 491 m 1,12,-1
 188 491 l 1,13,-1
 188 0 l 1,14,-1
 73 0 l 1,15,-1
 73 491 l 1,12,-1
EndSplineSet
EndChar

StartChar: j
Encoding: 106 106 79
Width: 263
GlyphClass: 2
Flags: W
AnchorPoint: "Anclaje-0" 133 709 basechar 0
LayerCount: 2
Fore
SplineSet
74 491 m 1,0,-1
 190 491 l 1,1,-1
 190 -25 l 2,2,3
 190 -64 190 -64 182 -97 c 128,-1,4
 174 -130 174 -130 155.5 -154.5 c 128,-1,5
 137 -179 137 -179 107 -192.5 c 128,-1,6
 77 -206 77 -206 34 -206 c 0,7,8
 7 -206 7 -206 -12.5 -202 c 128,-1,9
 -32 -198 -32 -198 -46 -193 c 1,10,-1
 -24 -107 l 1,11,12
 -14 -110 -14 -110 -3.5 -112.5 c 128,-1,13
 7 -115 7 -115 18 -115 c 0,14,15
 51 -115 51 -115 62.5 -92.5 c 128,-1,16
 74 -70 74 -70 74 -27 c 2,17,-1
 74 491 l 1,0,-1
132 577 m 0,18,19
 102 577 102 577 81.5 595 c 128,-1,20
 61 613 61 613 61 642 c 256,21,22
 61 671 61 671 81.5 689.5 c 128,-1,23
 102 708 102 708 132 708 c 0,24,25
 163 708 163 708 183.5 689.5 c 128,-1,26
 204 671 204 671 204 642 c 256,27,28
 204 613 204 613 183.5 595 c 128,-1,29
 163 577 163 577 132 577 c 0,18,19
EndSplineSet
EndChar

StartChar: k
Encoding: 107 107 80
Width: 522
GlyphClass: 2
Flags: W
AnchorPoint: "Anclaje-0" 133 730 basechar 0
LayerCount: 2
Fore
SplineSet
73 706 m 1,0,-1
 186 706 l 1,1,-1
 186 265 l 1,2,-1
 189 265 l 1,3,-1
 371 491 l 1,4,-1
 497 491 l 1,5,-1
 329 291 l 1,6,-1
 514 0 l 1,7,-1
 389 0 l 1,8,-1
 263 213 l 1,9,-1
 186 125 l 1,10,-1
 186 0 l 1,11,-1
 73 0 l 1,12,-1
 73 706 l 1,0,-1
EndSplineSet
EndChar

StartChar: l
Encoding: 108 108 81
Width: 262
GlyphClass: 2
Flags: W
AnchorPoint: "Anclaje-0" 131 730 basechar 0
LayerCount: 2
Fore
SplineSet
73 706 m 1,0,-1
 188 706 l 1,1,-1
 188 0 l 1,2,-1
 73 0 l 1,3,-1
 73 706 l 1,0,-1
EndSplineSet
EndChar

StartChar: m
Encoding: 109 109 82
Width: 843
GlyphClass: 2
Flags: W
AnchorPoint: "Anclaje-0" 429 513 basechar 0
LayerCount: 2
Fore
SplineSet
73 491 m 1,0,-1
 168 491 l 1,1,-1
 176 424 l 1,2,-1
 180 424 l 1,3,4
 211 457 211 457 247.5 480 c 128,-1,5
 284 503 284 503 330 503 c 0,6,7
 384 503 384 503 416.5 480 c 128,-1,8
 449 457 449 457 466 415 c 1,9,10
 501 453 501 453 539 478 c 128,-1,11
 577 503 577 503 624 503 c 0,12,13
 702 503 702 503 739 452.5 c 128,-1,14
 776 402 776 402 776 308 c 2,15,-1
 776 0 l 1,16,-1
 660 0 l 1,17,-1
 660 293 l 2,18,19
 660 354 660 354 641.5 379 c 128,-1,20
 623 404 623 404 585 404 c 0,21,22
 539 404 539 404 482 343 c 1,23,-1
 482 0 l 1,24,-1
 367 0 l 1,25,-1
 367 293 l 2,26,27
 367 354 367 354 348.5 379 c 128,-1,28
 330 404 330 404 291 404 c 0,29,30
 245 404 245 404 188 343 c 1,31,-1
 188 0 l 1,32,-1
 73 0 l 1,33,-1
 73 491 l 1,0,-1
EndSplineSet
EndChar

StartChar: n
Encoding: 110 110 83
Width: 560
GlyphClass: 2
Flags: W
AnchorPoint: "Anclaje-0" 300 513 basechar 0
LayerCount: 2
Fore
SplineSet
73 491 m 1,0,-1
 168 491 l 1,1,-1
 176 425 l 1,2,-1
 180 425 l 1,3,4
 213 457 213 457 251.5 480 c 128,-1,5
 290 503 290 503 341 503 c 0,6,7
 420 503 420 503 456 452.5 c 128,-1,8
 492 402 492 402 492 308 c 2,9,-1
 492 0 l 1,10,-1
 377 0 l 1,11,-1
 377 293 l 2,12,13
 377 354 377 354 359 379 c 128,-1,14
 341 404 341 404 300 404 c 0,15,16
 268 404 268 404 243.5 388.5 c 128,-1,17
 219 373 219 373 188 343 c 1,18,-1
 188 0 l 1,19,-1
 73 0 l 1,20,-1
 73 491 l 1,0,-1
EndSplineSet
EndChar

StartChar: o
Encoding: 111 111 84
Width: 549
GlyphClass: 2
Flags: W
AnchorPoint: "Anclaje-0" 274 513 basechar 0
LayerCount: 2
Fore
SplineSet
41 245 m 256,0,1
 41 306 41 306 60 354 c 128,-1,2
 79 402 79 402 111.5 435 c 128,-1,3
 144 468 144 468 186 485.5 c 128,-1,4
 228 503 228 503 274 503 c 256,5,6
 320 503 320 503 362.5 485.5 c 128,-1,7
 405 468 405 468 437 435 c 128,-1,8
 469 402 469 402 488.5 354 c 128,-1,9
 508 306 508 306 508 245 c 256,10,11
 508 184 508 184 488.5 136 c 128,-1,12
 469 88 469 88 437 55 c 128,-1,13
 405 22 405 22 362.5 5 c 128,-1,14
 320 -12 320 -12 274 -12 c 256,15,16
 228 -12 228 -12 186 5 c 128,-1,17
 144 22 144 22 111.5 55 c 128,-1,18
 79 88 79 88 60 136 c 128,-1,19
 41 184 41 184 41 245 c 256,0,1
159 245 m 0,20,21
 159 171 159 171 189.5 126.5 c 128,-1,22
 220 82 220 82 274 82 c 256,23,24
 328 82 328 82 359 126.5 c 128,-1,25
 390 171 390 171 390 245 c 0,26,27
 390 320 390 320 359 364.5 c 128,-1,28
 328 409 328 409 274 409 c 256,29,30
 220 409 220 409 189.5 364.5 c 128,-1,31
 159 320 159 320 159 245 c 0,20,21
EndSplineSet
EndChar

StartChar: p
Encoding: 112 112 85
Width: 564
GlyphClass: 2
Flags: W
AnchorPoint: "Anclaje-0" 300 513 basechar 0
LayerCount: 2
Fore
SplineSet
188 -40 m 1,0,-1
 188 -194 l 1,1,-1
 73 -194 l 1,2,-1
 73 491 l 1,3,-1
 168 491 l 1,4,-1
 176 439 l 1,5,-1
 180 439 l 1,6,7
 211 465 211 465 249 484 c 128,-1,8
 287 503 287 503 328 503 c 0,9,10
 374 503 374 503 409.5 485.5 c 128,-1,11
 445 468 445 468 470 435 c 128,-1,12
 495 402 495 402 508 356 c 128,-1,13
 521 310 521 310 521 253 c 0,14,15
 521 190 521 190 503.5 140.5 c 128,-1,16
 486 91 486 91 457 57.5 c 128,-1,17
 428 24 428 24 390 6 c 128,-1,18
 352 -12 352 -12 311 -12 c 0,19,20
 279 -12 279 -12 247 2 c 128,-1,21
 215 16 215 16 185 42 c 1,22,-1
 188 -40 l 1,0,-1
188 124 m 1,23,24
 215 101 215 101 240 92 c 128,-1,25
 265 83 265 83 287 83 c 0,26,27
 336 83 336 83 369 125.5 c 128,-1,28
 402 168 402 168 402 252 c 0,29,30
 402 326 402 326 377 367 c 128,-1,31
 352 408 352 408 296 408 c 0,32,33
 244 408 244 408 188 353 c 1,34,-1
 188 124 l 1,23,24
EndSplineSet
EndChar

StartChar: q
Encoding: 113 113 86
Width: 561
GlyphClass: 2
Flags: W
AnchorPoint: "Anclaje-0" 285 513 basechar 0
LayerCount: 2
Fore
SplineSet
43 245 m 0,0,1
 43 305 43 305 60.5 353 c 128,-1,2
 78 401 78 401 107 434 c 128,-1,3
 136 467 136 467 173.5 485 c 128,-1,4
 211 503 211 503 251 503 c 0,5,6
 293 503 293 503 324.5 488.5 c 128,-1,7
 356 474 356 474 387 444 c 1,8,-1
 390 444 l 1,9,-1
 400 491 l 1,10,-1
 491 491 l 1,11,-1
 491 -194 l 1,12,-1
 376 -194 l 1,13,-1
 376 -33 l 1,14,-1
 380 48 l 1,15,16
 353 22 353 22 318 5 c 128,-1,17
 283 -12 283 -12 245 -12 c 0,18,19
 152 -12 152 -12 97.5 55.5 c 128,-1,20
 43 123 43 123 43 245 c 0,0,1
162 246 m 0,21,22
 162 166 162 166 190.5 124.5 c 128,-1,23
 219 83 219 83 273 83 c 0,24,25
 328 83 328 83 376 138 c 1,26,-1
 376 367 l 1,27,28
 350 390 350 390 325.5 399 c 128,-1,29
 301 408 301 408 276 408 c 0,30,31
 228 408 228 408 195 366 c 128,-1,32
 162 324 162 324 162 246 c 0,21,22
EndSplineSet
EndChar

StartChar: r
Encoding: 114 114 87
Width: 373
GlyphClass: 2
Flags: W
AnchorPoint: "Anclaje-0" 232 513 basechar 0
LayerCount: 2
Fore
SplineSet
73 491 m 1,0,-1
 168 491 l 1,1,-1
 176 404 l 1,2,-1
 180 404 l 1,3,4
 206 452 206 452 243 477.5 c 128,-1,5
 280 503 280 503 319 503 c 0,6,7
 354 503 354 503 375 493 c 1,8,-1
 355 393 l 1,9,10
 342 397 342 397 331 399 c 128,-1,11
 320 401 320 401 304 401 c 0,12,13
 275 401 275 401 243 378.5 c 128,-1,14
 211 356 211 356 188 300 c 1,15,-1
 188 0 l 1,16,-1
 73 0 l 1,17,-1
 73 491 l 1,0,-1
EndSplineSet
EndChar

StartChar: s
Encoding: 115 115 88
Width: 431
GlyphClass: 2
Flags: W
AnchorPoint: "Anclaje-0" 228 513 basechar 0
LayerCount: 2
Fore
SplineSet
78 130 m 1,0,1
 111 104 111 104 143.5 89.5 c 128,-1,2
 176 75 176 75 214 75 c 0,3,4
 254 75 254 75 273 91.5 c 128,-1,5
 292 108 292 108 292 134 c 0,6,7
 292 149 292 149 283 160.5 c 128,-1,8
 274 172 274 172 259 181 c 128,-1,9
 244 190 244 190 225 197.5 c 128,-1,10
 206 205 206 205 187 213 c 0,11,12
 163 222 163 222 138 234 c 128,-1,13
 113 246 113 246 93.5 263 c 128,-1,14
 74 280 74 280 61.5 302.5 c 128,-1,15
 49 325 49 325 49 356 c 0,16,17
 49 421 49 421 97 462 c 128,-1,18
 145 503 145 503 228 503 c 0,19,20
 279 503 279 503 320 485 c 128,-1,21
 361 467 361 467 391 444 c 1,22,-1
 338 374 l 1,23,24
 312 393 312 393 285.5 404.5 c 128,-1,25
 259 416 259 416 230 416 c 0,26,27
 193 416 193 416 175.5 400.5 c 128,-1,28
 158 385 158 385 158 362 c 0,29,30
 158 347 158 347 166.5 336.5 c 128,-1,31
 175 326 175 326 189 318 c 128,-1,32
 203 310 203 310 221.5 303 c 128,-1,33
 240 296 240 296 260 289 c 0,34,35
 285 280 285 280 310 268.5 c 128,-1,36
 335 257 335 257 355.5 240 c 128,-1,37
 376 223 376 223 388.5 198.5 c 128,-1,38
 401 174 401 174 401 140 c 0,39,40
 401 108 401 108 388.5 80.5 c 128,-1,41
 376 53 376 53 352 32.5 c 128,-1,42
 328 12 328 12 292 0 c 128,-1,43
 256 -12 256 -12 210 -12 c 0,44,45
 159 -12 159 -12 109.5 7.5 c 128,-1,46
 60 27 60 27 24 56 c 1,47,-1
 78 130 l 1,0,1
EndSplineSet
EndChar

StartChar: t
Encoding: 116 116 89
Width: 361
GlyphClass: 2
Flags: W
AnchorPoint: "Anclaje-0" 155 650 basechar 0
LayerCount: 2
Fore
SplineSet
90 400 m 1,0,-1
 20 400 l 1,1,-1
 20 486 l 1,2,-1
 96 491 l 1,3,-1
 110 625 l 1,4,-1
 206 625 l 1,5,-1
 206 491 l 1,6,-1
 331 491 l 1,7,-1
 331 400 l 1,8,-1
 206 400 l 1,9,-1
 206 166 l 2,10,11
 206 80 206 80 275 80 c 0,12,13
 288 80 288 80 301.5 83 c 128,-1,14
 315 86 315 86 326 91 c 1,15,-1
 346 6 l 1,16,17
 326 -1 326 -1 300.5 -6.5 c 128,-1,18
 275 -12 275 -12 246 -12 c 0,19,20
 203 -12 203 -12 173.5 1 c 128,-1,21
 144 14 144 14 125.5 37.5 c 128,-1,22
 107 61 107 61 98.5 93.5 c 128,-1,23
 90 126 90 126 90 166 c 2,24,-1
 90 400 l 1,0,-1
EndSplineSet
EndChar

StartChar: u
Encoding: 117 117 90
Width: 556
GlyphClass: 2
Flags: W
AnchorPoint: "Anclaje-0" 279 513 basechar 0
LayerCount: 2
Fore
SplineSet
68 491 m 1,0,-1
 183 491 l 1,1,-1
 183 198 l 2,2,3
 183 137 183 137 201 112 c 128,-1,4
 219 87 219 87 259 87 c 0,5,6
 291 87 291 87 315.5 103 c 128,-1,7
 340 119 340 119 368 155 c 1,8,-1
 368 491 l 1,9,-1
 483 491 l 1,10,-1
 483 0 l 1,11,-1
 389 0 l 1,12,-1
 380 72 l 1,13,-1
 377 72 l 1,14,15
 345 34 345 34 307.5 11 c 128,-1,16
 270 -12 270 -12 219 -12 c 0,17,18
 140 -12 140 -12 104 38.5 c 128,-1,19
 68 89 68 89 68 183 c 2,20,-1
 68 491 l 1,0,-1
EndSplineSet
EndChar

StartChar: v
Encoding: 118 118 91
Width: 495
GlyphClass: 2
Flags: W
AnchorPoint: "Anclaje-0" 249 513 basechar 0
LayerCount: 2
Fore
SplineSet
12 491 m 1,0,-1
 129 491 l 1,1,-1
 207 236 l 2,2,3
 217 200 217 200 227.5 163 c 128,-1,4
 238 126 238 126 248 88 c 1,5,-1
 252 88 l 1,6,7
 263 126 263 126 273 163 c 128,-1,8
 283 200 283 200 294 236 c 2,9,-1
 372 491 l 1,10,-1
 483 491 l 1,11,-1
 316 0 l 1,12,-1
 183 0 l 1,13,-1
 12 491 l 1,0,-1
EndSplineSet
EndChar

StartChar: w
Encoding: 119 119 92
Width: 748
GlyphClass: 2
Flags: W
AnchorPoint: "Anclaje-0" 374 513 basechar 0
LayerCount: 2
Fore
SplineSet
24 491 m 1,0,-1
 140 491 l 1,1,-1
 199 236 l 2,2,3
 207 201 207 201 212.5 166 c 128,-1,4
 218 131 218 131 225 95 c 1,5,-1
 229 95 l 1,6,7
 236 131 236 131 243.5 166 c 128,-1,8
 251 201 251 201 260 236 c 2,9,-1
 324 491 l 1,10,-1
 429 491 l 1,11,-1
 494 236 l 2,12,13
 503 201 503 201 511 166 c 128,-1,14
 519 131 519 131 527 95 c 1,15,-1
 531 95 l 1,16,17
 538 131 538 131 544 166 c 128,-1,18
 550 201 550 201 557 236 c 2,19,-1
 616 491 l 1,20,-1
 724 491 l 1,21,-1
 599 0 l 1,22,-1
 462 0 l 1,23,-1
 405 229 l 2,24,25
 397 264 397 264 390 298.5 c 128,-1,26
 383 333 383 333 375 372 c 1,27,-1
 371 372 l 1,28,29
 364 333 364 333 357 298 c 128,-1,30
 350 263 350 263 342 228 c 2,31,-1
 286 0 l 1,32,-1
 154 0 l 1,33,-1
 24 491 l 1,0,-1
EndSplineSet
EndChar

StartChar: x
Encoding: 120 120 93
Width: 481
GlyphClass: 2
Flags: W
AnchorPoint: "Anclaje-0" 240 513 basechar 0
LayerCount: 2
Fore
SplineSet
170 256 m 1,0,-1
 24 491 l 1,1,-1
 148 491 l 1,2,-1
 203 398 l 2,3,4
 214 378 214 378 225.5 356.5 c 128,-1,5
 237 335 237 335 248 315 c 1,6,-1
 252 315 l 1,7,8
 261 335 261 335 271 356.5 c 128,-1,9
 281 378 281 378 290 398 c 2,10,-1
 337 491 l 1,11,-1
 456 491 l 1,12,-1
 311 243 l 1,13,-1
 467 0 l 1,14,-1
 343 0 l 1,15,-1
 283 97 l 2,16,17
 271 119 271 119 258.5 141 c 128,-1,18
 246 163 246 163 233 184 c 1,19,-1
 229 184 l 1,20,21
 218 163 218 163 207.5 141.5 c 128,-1,22
 197 120 197 120 186 97 c 2,23,-1
 134 0 l 1,24,-1
 14 0 l 1,25,-1
 170 256 l 1,0,-1
EndSplineSet
EndChar

StartChar: y
Encoding: 121 121 94
Width: 495
GlyphClass: 2
Flags: W
AnchorPoint: "Anclaje-0" 255 513 basechar 0
LayerCount: 2
Fore
SplineSet
63 -102 m 1,0,1
 70 -104 70 -104 79.5 -106.5 c 128,-1,2
 89 -109 89 -109 98 -109 c 0,3,4
 137 -109 137 -109 160.5 -85.5 c 128,-1,5
 184 -62 184 -62 196 -25 c 2,6,-1
 205 6 l 1,7,-1
 12 491 l 1,8,-1
 129 491 l 1,9,-1
 214 250 l 2,10,11
 225 218 225 218 235.5 182.5 c 128,-1,12
 246 147 246 147 257 112 c 1,13,-1
 261 112 l 1,14,15
 270 146 270 146 279.5 181.5 c 128,-1,16
 289 217 289 217 298 250 c 2,17,-1
 372 491 l 1,18,-1
 483 491 l 1,19,-1
 305 -22 l 2,20,21
 290 -64 290 -64 272 -97 c 128,-1,22
 254 -130 254 -130 230.5 -153.5 c 128,-1,23
 207 -177 207 -177 176.5 -189.5 c 128,-1,24
 146 -202 146 -202 106 -202 c 0,25,26
 86 -202 86 -202 71 -199.5 c 128,-1,27
 56 -197 56 -197 42 -192 c 1,28,-1
 63 -102 l 1,29,-1
 63 -102 l 1,0,1
EndSplineSet
EndChar

StartChar: z
Encoding: 122 122 95
Width: 443
GlyphClass: 2
Flags: W
AnchorPoint: "Anclaje-0" 238 513 basechar 0
LayerCount: 2
Fore
SplineSet
34 62 m 1,0,-1
 266 400 l 1,1,-1
 60 400 l 1,2,-1
 60 491 l 1,3,-1
 410 491 l 1,4,-1
 410 430 l 1,5,-1
 179 92 l 1,6,-1
 418 92 l 1,7,-1
 418 0 l 1,8,-1
 34 0 l 1,9,-1
 34 62 l 1,0,-1
EndSplineSet
EndChar

StartChar: braceleft
Encoding: 123 123 96
Width: 324
GlyphClass: 2
Flags: W
LayerCount: 2
Fore
SplineSet
286 -89 m 1,0,-1
 286 -152 l 1,1,-1
 232 -152 l 2,2,3
 200 -152 200 -152 177 -145.5 c 128,-1,4
 154 -139 154 -139 139 -123 c 128,-1,5
 124 -107 124 -107 116.5 -80.5 c 128,-1,6
 109 -54 109 -54 109 -14 c 0,7,8
 109 13 109 13 110.5 35.5 c 128,-1,9
 112 58 112 58 113.5 79 c 128,-1,10
 115 100 115 100 116.5 121.5 c 128,-1,11
 118 143 118 143 118 167 c 0,12,13
 118 181 118 181 114 194.5 c 128,-1,14
 110 208 110 208 100 218.5 c 128,-1,15
 90 229 90 229 73.5 236 c 128,-1,16
 57 243 57 243 32 243 c 1,17,-1
 32 313 l 1,18,19
 57 313 57 313 73.5 320 c 128,-1,20
 90 327 90 327 100 337.5 c 128,-1,21
 110 348 110 348 114 361 c 128,-1,22
 118 374 118 374 118 388 c 0,23,24
 118 413 118 413 116.5 434.5 c 128,-1,25
 115 456 115 456 113.5 477 c 128,-1,26
 112 498 112 498 110.5 520.5 c 128,-1,27
 109 543 109 543 109 570 c 0,28,29
 109 610 109 610 116.5 636.5 c 128,-1,30
 124 663 124 663 139 679 c 128,-1,31
 154 695 154 695 177 701.5 c 128,-1,32
 200 708 200 708 232 708 c 2,33,-1
 286 708 l 1,34,-1
 286 645 l 1,35,-1
 263 645 l 2,36,37
 227 645 227 645 214.5 627.5 c 128,-1,38
 202 610 202 610 202 565 c 0,39,40
 202 522 202 522 204.5 481.5 c 128,-1,41
 207 441 207 441 207 393 c 0,42,43
 207 339 207 339 191 314 c 128,-1,44
 175 289 175 289 140 280 c 1,45,-1
 140 276 l 1,46,47
 175 267 175 267 191 241.5 c 128,-1,48
 207 216 207 216 207 163 c 0,49,50
 207 115 207 115 204.5 74.5 c 128,-1,51
 202 34 202 34 202 -9 c 0,52,53
 202 -54 202 -54 214.5 -71.5 c 128,-1,54
 227 -89 227 -89 263 -89 c 2,55,-1
 286 -89 l 1,0,-1
EndSplineSet
EndChar

StartChar: bar
Encoding: 124 124 97
Width: 255
GlyphClass: 2
Flags: W
LayerCount: 2
Fore
SplineSet
89 750 m 1,0,-1
 166 750 l 1,1,-1
 166 -250 l 1,2,-1
 89 -250 l 1,3,-1
 89 750 l 1,0,-1
EndSplineSet
EndChar

StartChar: braceright
Encoding: 125 125 98
Width: 324
GlyphClass: 2
Flags: W
LayerCount: 2
Fore
SplineSet
61 -89 m 2,0,1
 97 -89 97 -89 109.5 -71.5 c 128,-1,2
 122 -54 122 -54 122 -9 c 0,3,4
 122 34 122 34 119.5 74.5 c 128,-1,5
 117 115 117 115 117 163 c 0,6,7
 117 216 117 216 133 241.5 c 128,-1,8
 149 267 149 267 184 276 c 1,9,-1
 184 280 l 1,10,11
 149 289 149 289 133 314 c 128,-1,12
 117 339 117 339 117 393 c 0,13,14
 117 441 117 441 119.5 481.5 c 128,-1,15
 122 522 122 522 122 565 c 0,16,17
 122 610 122 610 109.5 627.5 c 128,-1,18
 97 645 97 645 61 645 c 2,19,-1
 38 645 l 1,20,-1
 38 708 l 1,21,-1
 92 708 l 2,22,23
 123 708 123 708 146.5 701.5 c 128,-1,24
 170 695 170 695 185 679 c 128,-1,25
 200 663 200 663 207.5 636.5 c 128,-1,26
 215 610 215 610 215 570 c 0,27,28
 215 543 215 543 213.5 520.5 c 128,-1,29
 212 498 212 498 210.5 477 c 128,-1,30
 209 456 209 456 207.5 434.5 c 128,-1,31
 206 413 206 413 206 388 c 0,32,33
 206 374 206 374 210 361 c 128,-1,34
 214 348 214 348 224 337.5 c 128,-1,35
 234 327 234 327 250.5 320 c 128,-1,36
 267 313 267 313 292 313 c 1,37,-1
 292 243 l 1,38,39
 267 243 267 243 250.5 236 c 128,-1,40
 234 229 234 229 224 218.5 c 128,-1,41
 214 208 214 208 210 194.5 c 128,-1,42
 206 181 206 181 206 167 c 0,43,44
 206 143 206 143 207.5 121.5 c 128,-1,45
 209 100 209 100 210.5 79 c 128,-1,46
 212 58 212 58 213.5 35.5 c 128,-1,47
 215 13 215 13 215 -14 c 0,48,49
 215 -54 215 -54 207.5 -80.5 c 128,-1,50
 200 -107 200 -107 185 -123 c 128,-1,51
 170 -139 170 -139 146.5 -145.5 c 128,-1,52
 123 -152 123 -152 92 -152 c 2,53,-1
 38 -152 l 1,54,-1
 38 -89 l 1,55,-1
 61 -89 l 2,0,1
EndSplineSet
EndChar

StartChar: asciitilde
Encoding: 126 126 99
Width: 513
GlyphClass: 2
Flags: W
LayerCount: 2
Fore
SplineSet
32 315 m 1,0,1
 64 367 64 367 99.5 389.5 c 128,-1,2
 135 412 135 412 170 412 c 0,3,4
 200 412 200 412 223.5 399.5 c 128,-1,5
 247 387 247 387 267 372 c 128,-1,6
 287 357 287 357 305.5 344.5 c 128,-1,7
 324 332 324 332 345 332 c 0,8,9
 387 332 387 332 419 391 c 1,10,-1
 480 344 l 1,11,12
 448 293 448 293 413 270.5 c 128,-1,13
 378 248 378 248 343 248 c 0,14,15
 313 248 313 248 289.5 260.5 c 128,-1,16
 266 273 266 273 246 288 c 128,-1,17
 226 303 226 303 207.5 315.5 c 128,-1,18
 189 328 189 328 168 328 c 0,19,20
 126 328 126 328 94 269 c 1,21,-1
 32 315 l 1,0,1
EndSplineSet
EndChar

StartChar: exclamdown
Encoding: 161 161 101
Width: 315
GlyphClass: 2
Flags: W
LayerCount: 2
Fore
SplineSet
212 -65 m 1,0,-1
 216 -179 l 1,1,-1
 100 -179 l 1,2,-1
 103 -65 l 1,3,-1
 119 276 l 1,4,-1
 196 276 l 1,5,-1
 212 -65 l 1,0,-1
232 426 m 0,6,7
 232 391 232 391 211 369 c 128,-1,8
 190 347 190 347 158 347 c 256,9,10
 126 347 126 347 104.5 369 c 128,-1,11
 83 391 83 391 83 426 c 0,12,13
 83 459 83 459 104.5 481 c 128,-1,14
 126 503 126 503 158 503 c 256,15,16
 190 503 190 503 211 481 c 128,-1,17
 232 459 232 459 232 426 c 0,6,7
EndSplineSet
EndChar

StartChar: copyright
Encoding: 169 169 102
Width: 747
GlyphClass: 2
Flags: W
LayerCount: 2
Fore
SplineSet
47 324 m 256,0,1
 47 401 47 401 73.5 462 c 128,-1,2
 100 523 100 523 144.5 566 c 128,-1,3
 189 609 189 609 248.5 631.5 c 128,-1,4
 308 654 308 654 374 654 c 256,5,6
 440 654 440 654 499 631.5 c 128,-1,7
 558 609 558 609 602.5 566 c 128,-1,8
 647 523 647 523 673.5 462 c 128,-1,9
 700 401 700 401 700 324 c 256,10,11
 700 247 700 247 673.5 185.5 c 128,-1,12
 647 124 647 124 602.5 80.5 c 128,-1,13
 558 37 558 37 499 13.5 c 128,-1,14
 440 -10 440 -10 374 -10 c 256,15,16
 308 -10 308 -10 248.5 13.5 c 128,-1,17
 189 37 189 37 144.5 80.5 c 128,-1,18
 100 124 100 124 73.5 185.5 c 128,-1,19
 47 247 47 247 47 324 c 256,0,1
105 324 m 256,20,21
 105 261 105 261 126 209 c 128,-1,22
 147 157 147 157 183.5 120 c 128,-1,23
 220 83 220 83 269 62.5 c 128,-1,24
 318 42 318 42 374 42 c 256,25,26
 430 42 430 42 479 62.5 c 128,-1,27
 528 83 528 83 564 120 c 128,-1,28
 600 157 600 157 621 209 c 128,-1,29
 642 261 642 261 642 324 c 256,30,31
 642 387 642 387 621 438.5 c 128,-1,32
 600 490 600 490 564 526.5 c 128,-1,33
 528 563 528 563 479 583 c 128,-1,34
 430 603 430 603 374 603 c 256,35,36
 318 603 318 603 269 583 c 128,-1,37
 220 563 220 563 183.5 526.5 c 128,-1,38
 147 490 147 490 126 438.5 c 128,-1,39
 105 387 105 387 105 324 c 256,20,21
196 323 m 0,40,41
 196 367 196 367 211.5 402.5 c 128,-1,42
 227 438 227 438 253.5 462.5 c 128,-1,43
 280 487 280 487 314 500.5 c 128,-1,44
 348 514 348 514 385 514 c 0,45,46
 430 514 430 514 460 497 c 128,-1,47
 490 480 490 480 514 456 c 1,48,-1
 469 406 l 1,49,50
 450 424 450 424 432 433.5 c 128,-1,51
 414 443 414 443 391 443 c 0,52,53
 340 443 340 443 311 409 c 128,-1,54
 282 375 282 375 282 323 c 0,55,56
 282 265 282 265 310.5 231 c 128,-1,57
 339 197 339 197 387 197 c 0,58,59
 416 197 416 197 437 208 c 128,-1,60
 458 219 458 219 478 236 c 1,61,-1
 517 180 l 1,62,63
 489 157 489 157 457.5 141.5 c 128,-1,64
 426 126 426 126 384 126 c 0,65,66
 344 126 344 126 309.5 139.5 c 128,-1,67
 275 153 275 153 250 178.5 c 128,-1,68
 225 204 225 204 210.5 240.5 c 128,-1,69
 196 277 196 277 196 323 c 0,40,41
EndSplineSet
EndChar

StartChar: guillemotleft
Encoding: 171 171 103
Width: 456
GlyphClass: 2
Flags: W
LayerCount: 2
Fore
SplineSet
221 210 m 1,0,-1
 221 294 l 1,1,-1
 356 443 l 1,2,-1
 402 406 l 1,3,-1
 287 252 l 1,4,-1
 402 97 l 1,5,-1
 356 61 l 1,6,-1
 221 210 l 1,0,-1
47 210 m 1,7,-1
 47 294 l 1,8,-1
 182 443 l 1,9,-1
 228 406 l 1,10,-1
 113 252 l 1,11,-1
 228 97 l 1,12,-1
 182 61 l 1,13,-1
 47 210 l 1,7,-1
EndSplineSet
EndChar

StartChar: guillemotright
Encoding: 187 187 104
Width: 456
GlyphClass: 2
Flags: W
LayerCount: 2
Fore
SplineSet
342 252 m 1,0,-1
 228 406 l 1,1,-1
 273 443 l 1,2,-1
 409 294 l 1,3,-1
 409 210 l 1,4,-1
 273 61 l 1,5,-1
 228 97 l 1,6,-1
 342 252 l 1,0,-1
168 252 m 1,7,-1
 54 406 l 1,8,-1
 99 443 l 1,9,-1
 235 294 l 1,10,-1
 235 210 l 1,11,-1
 99 61 l 1,12,-1
 54 97 l 1,13,-1
 168 252 l 1,7,-1
EndSplineSet
EndChar

StartChar: questiondown
Encoding: 191 191 105
Width: 444
GlyphClass: 2
Flags: W
LayerCount: 2
Fore
SplineSet
288 276 m 1,0,1
 293 239 293 239 285 209.5 c 128,-1,2
 277 180 277 180 262.5 155 c 128,-1,3
 248 130 248 130 229.5 108.5 c 128,-1,4
 211 87 211 87 194.5 66.5 c 128,-1,5
 178 46 178 46 167 25.5 c 128,-1,6
 156 5 156 5 156 -17 c 0,7,8
 156 -52 156 -52 177.5 -74.5 c 128,-1,9
 199 -97 199 -97 238 -97 c 0,10,11
 268 -97 268 -97 293 -82.5 c 128,-1,12
 318 -68 318 -68 340 -45 c 1,13,-1
 405 -104 l 1,14,15
 372 -142 372 -142 328 -166.5 c 128,-1,16
 284 -191 284 -191 230 -191 c 0,17,18
 189 -191 189 -191 155.5 -180.5 c 128,-1,19
 122 -170 122 -170 97 -149 c 128,-1,20
 72 -128 72 -128 58.5 -97 c 128,-1,21
 45 -66 45 -66 45 -25 c 0,22,23
 45 7 45 7 56.5 32.5 c 128,-1,24
 68 58 68 58 85 81 c 128,-1,25
 102 104 102 104 121 125 c 128,-1,26
 140 146 140 146 155.5 169 c 128,-1,27
 171 192 171 192 180 218 c 128,-1,28
 189 244 189 244 186 276 c 1,29,-1
 288 276 l 1,0,1
310 426 m 0,30,31
 310 391 310 391 289 369 c 128,-1,32
 268 347 268 347 236 347 c 256,33,34
 204 347 204 347 183 369 c 128,-1,35
 162 391 162 391 162 426 c 0,36,37
 162 459 162 459 183 481 c 128,-1,38
 204 503 204 503 236 503 c 256,39,40
 268 503 268 503 289 481 c 128,-1,41
 310 459 310 459 310 426 c 0,30,31
EndSplineSet
EndChar

StartChar: dotlessi
Encoding: 305 305 120
Width: 262
GlyphClass: 2
Flags: W
AnchorPoint: "Anclaje-0" 131 513 basechar 0
LayerCount: 2
Fore
SplineSet
73 491 m 1,0,-1
 188 491 l 1,1,-1
 188 0 l 1,2,-1
 73 0 l 1,3,-1
 73 491 l 1,0,-1
EndSplineSet
EndChar

StartChar: uni0261
Encoding: 609 609 121
Width: 571
GlyphClass: 2
Flags: W
AnchorPoint: "Anclaje-0" 293 513 basechar 0
LayerCount: 2
Fore
SplineSet
120 -73 m 1,0,1
 155 -95 155 -95 191.5 -104.5 c 128,-1,2
 228 -114 228 -114 260 -114 c 0,3,4
 321 -114 321 -114 349 -86 c 128,-1,5
 377 -58 377 -58 379 -10 c 2,6,-1
 382 66 l 1,7,8
 356 41 356 41 321.5 25 c 128,-1,9
 287 9 287 9 248 9 c 0,10,11
 202 9 202 9 165 26.5 c 128,-1,12
 128 44 128 44 101.5 76 c 128,-1,13
 75 108 75 108 61 153 c 128,-1,14
 47 198 47 198 47 254 c 0,15,16
 47 311 47 311 65 357 c 128,-1,17
 83 403 83 403 112 435.5 c 128,-1,18
 141 468 141 468 179 485.5 c 128,-1,19
 217 503 217 503 257 503 c 0,20,21
 296 503 296 503 327.5 489 c 128,-1,22
 359 475 359 475 388 446 c 1,23,-1
 392 446 l 1,24,-1
 400 491 l 1,25,-1
 494 491 l 1,26,-1
 494 -10 l 2,27,28
 494 -104 494 -104 433.5 -154.5 c 128,-1,29
 373 -205 373 -205 260 -205 c 0,30,31
 217 -205 217 -205 169 -191 c 128,-1,32
 121 -177 121 -177 80 -151 c 1,33,-1
 120 -73 l 1,0,1
277 103 m 0,34,35
 306 103 306 103 330 116.5 c 128,-1,36
 354 130 354 130 379 159 c 1,37,-1
 379 367 l 1,38,39
 354 390 354 390 329 399 c 128,-1,40
 304 408 304 408 279 408 c 0,41,42
 255 408 255 408 234.5 397.5 c 128,-1,43
 214 387 214 387 198 367 c 128,-1,44
 182 347 182 347 173 318.5 c 128,-1,45
 164 290 164 290 164 255 c 0,46,47
 164 183 164 183 193.5 143 c 128,-1,48
 223 103 223 103 277 103 c 0,34,35
EndSplineSet
EndChar

StartChar: uni0300
Encoding: 768 768 122
Width: 0
GlyphClass: 4
Flags: W
AnchorPoint: "Anclaje-1" 0 513 mark 0
AnchorPoint: "Anclaje-0" 0 513 mark 0
LayerCount: 2
Fore
SplineSet
-130 719 m 1,0,-1
 -16 719 l 1,1,-1
 74 573 l 1,2,-1
 -12 573 l 1,3,-1
 -130 719 l 1,0,-1
EndSplineSet
EndChar

StartChar: uni0301
Encoding: 769 769 123
Width: 0
GlyphClass: 4
Flags: W
AnchorPoint: "Anclaje-1" 0 513 mark 0
AnchorPoint: "Anclaje-0" 0 513 mark 0
LayerCount: 2
Fore
SplineSet
12 573 m 1,0,-1
 -74 573 l 1,1,-1
 16 719 l 1,2,-1
 130 719 l 1,3,-1
 12 573 l 1,0,-1
EndSplineSet
Substitution2: "Single Substitution lookup 7 subtable" uni0301.cap
Substitution2: "'case' Case-Sensitive Forms in Latin lookup 6 subtable" uni0301.cap
Substitution2: "'aalt' Activar todas las variantes in Latin lookup 0 subtable" uni0301.cap
EndChar

StartChar: uni0303
Encoding: 771 771 124
Width: 0
GlyphClass: 4
Flags: W
AnchorPoint: "Anclaje-1" 0 513 mark 0
AnchorPoint: "Anclaje-0" 0 513 mark 0
LayerCount: 2
Fore
SplineSet
-153 577 m 1,0,1
 -147 634 -147 634 -122.5 666 c 128,-1,2
 -98 698 -98 698 -60 698 c 0,3,4
 -41 698 -41 698 -24.5 690.5 c 128,-1,5
 -8 683 -8 683 6 674 c 128,-1,6
 20 665 20 665 32 657.5 c 128,-1,7
 44 650 44 650 56 650 c 0,8,9
 82 650 82 650 92 698 c 1,10,-1
 153 698 l 1,11,12
 147 641 147 641 122.5 609 c 128,-1,13
 98 577 98 577 60 577 c 0,14,15
 40 577 40 577 24 584.5 c 128,-1,16
 8 592 8 592 -5.5 601 c 128,-1,17
 -19 610 -19 610 -31.5 617.5 c 128,-1,18
 -44 625 -44 625 -56 625 c 0,19,20
 -82 625 -82 625 -92 577 c 1,21,-1
 -153 577 l 1,22,-1
 -153 577 l 1,0,1
EndSplineSet
Substitution2: "Single Substitution lookup 7 subtable" uni0303.cap
Substitution2: "'case' Case-Sensitive Forms in Latin lookup 6 subtable" uni0303.cap
Substitution2: "'aalt' Activar todas las variantes in Latin lookup 0 subtable" uni0303.cap
EndChar

StartChar: uni0308
Encoding: 776 776 125
Width: 0
GlyphClass: 4
Flags: W
AnchorPoint: "Anclaje-1" 0 708 basemark 0
AnchorPoint: "Anclaje-1" 0 513 mark 0
AnchorPoint: "Anclaje-0" 0 513 mark 0
LayerCount: 2
Fore
SplineSet
-93 579 m 256,0,1
 -119 579 -119 579 -135.5 596 c 128,-1,2
 -152 613 -152 613 -152 639 c 0,3,4
 -152 664 -152 664 -135.5 681 c 128,-1,5
 -119 698 -119 698 -93 698 c 256,6,7
 -67 698 -67 698 -50 681 c 128,-1,8
 -33 664 -33 664 -33 639 c 0,9,10
 -33 613 -33 613 -50 596 c 128,-1,11
 -67 579 -67 579 -93 579 c 256,0,1
93 579 m 256,12,13
 67 579 67 579 50 596 c 128,-1,14
 33 613 33 613 33 639 c 0,15,16
 33 664 33 664 50 681 c 128,-1,17
 67 698 67 698 93 698 c 256,18,19
 119 698 119 698 135.5 681 c 128,-1,20
 152 664 152 664 152 639 c 0,21,22
 152 613 152 613 135.5 596 c 128,-1,23
 119 579 119 579 93 579 c 256,12,13
EndSplineSet
Substitution2: "Single Substitution lookup 7 subtable" uni0308.cap
Substitution2: "'case' Case-Sensitive Forms in Latin lookup 6 subtable" uni0308.cap
Substitution2: "'aalt' Activar todas las variantes in Latin lookup 0 subtable" uni0308.cap
EndChar

StartChar: emdash
Encoding: 8212 8212 126
Width: 800
GlyphClass: 2
Flags: W
LayerCount: 2
Fore
SplineSet
42 290 m 1,0,-1
 758 290 l 1,1,-1
 758 214 l 1,2,-1
 42 214 l 1,3,-1
 42 290 l 1,0,-1
EndSplineSet
EndChar

StartChar: quoteleft
Encoding: 8216 8216 127
Width: 275
GlyphClass: 2
Flags: W
LayerCount: 2
Fore
SplineSet
208 638 m 1,0,1
 166 614 166 614 145.5 585.5 c 128,-1,2
 125 557 125 557 125 512 c 1,3,4
 128 513 128 513 134 513 c 0,5,6
 161 513 161 513 180.5 496.5 c 128,-1,7
 200 480 200 480 200 451 c 0,8,9
 200 419 200 419 181.5 400.5 c 128,-1,10
 163 382 163 382 134 382 c 0,11,12
 96 382 96 382 76 411 c 128,-1,13
 56 440 56 440 56 493 c 0,14,15
 56 624 56 624 180 689 c 1,16,-1
 208 638 l 1,0,1
EndSplineSet
EndChar

StartChar: quoteright
Encoding: 8217 8217 128
Width: 275
GlyphClass: 2
Flags: W
LayerCount: 2
Fore
SplineSet
67 442 m 1,0,1
 109 466 109 466 129.5 494.5 c 128,-1,2
 150 523 150 523 150 568 c 1,3,4
 147 567 147 567 141 567 c 0,5,6
 115 567 115 567 95.5 583.5 c 128,-1,7
 76 600 76 600 76 629 c 0,8,9
 76 661 76 661 94 679.5 c 128,-1,10
 112 698 112 698 141 698 c 0,11,12
 179 698 179 698 199.5 669 c 128,-1,13
 220 640 220 640 220 587 c 0,14,15
 220 456 220 456 95 391 c 1,16,-1
 67 442 l 1,0,1
EndSplineSet
EndChar

StartChar: bullet
Encoding: 8226 8226 131
Width: 325
GlyphClass: 2
Flags: W
LayerCount: 2
Fore
SplineSet
162 133 m 256,0,1
 137 133 137 133 114.5 142.5 c 128,-1,2
 92 152 92 152 75.5 169.5 c 128,-1,3
 59 187 59 187 49.5 210.5 c 128,-1,4
 40 234 40 234 40 263 c 0,5,6
 40 291 40 291 49.5 315 c 128,-1,7
 59 339 59 339 75.5 356 c 128,-1,8
 92 373 92 373 114.5 383 c 128,-1,9
 137 393 137 393 162 393 c 256,10,11
 187 393 187 393 209.5 383 c 128,-1,12
 232 373 232 373 249 356 c 128,-1,13
 266 339 266 339 275.5 315 c 128,-1,14
 285 291 285 291 285 263 c 0,15,16
 285 234 285 234 275.5 210.5 c 128,-1,17
 266 187 266 187 249 169.5 c 128,-1,18
 232 152 232 152 209.5 142.5 c 128,-1,19
 187 133 187 133 162 133 c 256,0,1
EndSplineSet
EndChar

StartChar: fraction
Encoding: 8260 8260 132
Width: 91
GlyphClass: 2
Flags: W
LayerCount: 2
Fore
SplineSet
-169 -12 m 1,0,-1
 188 666 l 1,1,-1
 258 666 l 1,2,-1
 -98 -12 l 1,3,-1
 -169 -12 l 1,0,-1
EndSplineSet
EndChar

StartChar: minus
Encoding: 8722 8722 133
Width: 513
GlyphClass: 2
Flags: W
LayerCount: 2
Fore
SplineSet
34 372 m 1,0,-1
 479 372 l 1,1,-1
 479 288 l 1,2,-1
 34 288 l 1,3,-1
 34 372 l 1,0,-1
EndSplineSet
EndChar

StartChar: infinity
Encoding: 8734 8734 134
Width: 798
GlyphClass: 2
Flags: W
LayerCount: 2
Fore
SplineSet
199 152 m 0,0,1
 166 152 166 152 136.5 165.5 c 128,-1,2
 107 179 107 179 85 202 c 128,-1,3
 63 225 63 225 50.5 255.5 c 128,-1,4
 38 286 38 286 38 320 c 0,5,6
 38 365 38 365 51 400 c 128,-1,7
 64 435 64 435 87.5 459 c 128,-1,8
 111 483 111 483 143.5 496 c 128,-1,9
 176 509 176 509 215 509 c 0,10,11
 245 509 245 509 269.5 500.5 c 128,-1,12
 294 492 294 492 314.5 478 c 128,-1,13
 335 464 335 464 351.5 446.5 c 128,-1,14
 368 429 368 429 382 411 c 1,15,-1
 386 411 l 1,16,17
 423 460 423 460 470 492.5 c 128,-1,18
 517 525 517 525 579 525 c 0,19,20
 618 525 618 525 651 511 c 128,-1,21
 684 497 684 497 708 472.5 c 128,-1,22
 732 448 732 448 746 413.5 c 128,-1,23
 760 379 760 379 760 338 c 0,24,25
 760 290 760 290 745.5 251.5 c 128,-1,26
 731 213 731 213 706.5 186 c 128,-1,27
 682 159 682 159 648 144.5 c 128,-1,28
 614 130 614 130 575 130 c 0,29,30
 511 130 511 130 464.5 160 c 128,-1,31
 418 190 418 190 372 250 c 1,32,-1
 368 250 l 1,33,34
 354 233 354 233 337.5 216 c 128,-1,35
 321 199 321 199 300 184.5 c 128,-1,36
 279 170 279 170 254 161 c 128,-1,37
 229 152 229 152 199 152 c 0,0,1
426 345 m 1,38,39
 462 297 462 297 496.5 267 c 128,-1,40
 531 237 531 237 575 237 c 0,41,42
 621 237 621 237 647 266 c 128,-1,43
 673 295 673 295 673 335 c 0,44,45
 673 383 673 383 645 411.5 c 128,-1,46
 617 440 617 440 568 440 c 0,47,48
 493 440 493 440 426 345 c 1,38,39
210 238 m 0,49,50
 246 238 246 238 275.5 260 c 128,-1,51
 305 282 305 282 328 316 c 1,52,53
 301 354 301 354 271 378 c 128,-1,54
 241 402 241 402 206 402 c 0,55,56
 168 402 168 402 146.5 380.5 c 128,-1,57
 125 359 125 359 125 324 c 0,58,59
 125 288 125 288 148.5 263 c 128,-1,60
 172 238 172 238 210 238 c 0,49,50
EndSplineSet
EndChar

StartChar: zero.dnom
Encoding: 65539 -1 135
Width: 372
GlyphClass: 2
Flags: W
LayerCount: 2
Fore
SplineSet
186 -12 m 256,0,1
 117 -12 117 -12 73.5 42.5 c 128,-1,2
 30 97 30 97 30 196 c 256,3,4
 30 295 30 295 73.5 348.5 c 128,-1,5
 117 402 117 402 186 402 c 256,6,7
 255 402 255 402 298.5 348.5 c 128,-1,8
 342 295 342 295 342 196 c 256,9,10
 342 97 342 97 298.5 42.5 c 128,-1,11
 255 -12 255 -12 186 -12 c 256,0,1
186 55 m 256,12,13
 218 55 218 55 238.5 88.5 c 128,-1,14
 259 122 259 122 259 196 c 256,15,16
 259 270 259 270 238.5 302.5 c 128,-1,17
 218 335 218 335 186 335 c 256,18,19
 154 335 154 335 133.5 302.5 c 128,-1,20
 113 270 113 270 113 196 c 256,21,22
 113 122 113 122 133.5 88.5 c 128,-1,23
 154 55 154 55 186 55 c 256,12,13
EndSplineSet
EndChar

StartChar: uni0301.cap
Encoding: 65540 -1 136
Width: 0
GlyphClass: 4
Flags: W
AnchorPoint: "Anclaje-1" 0 676 mark 0
AnchorPoint: "Anclaje-0" 0 676 mark 0
LayerCount: 2
Fore
SplineSet
30 704 m 1,0,-1
 -63 704 l 1,1,-1
 21 820 l 1,2,-1
 147 820 l 1,3,-1
 30 704 l 1,0,-1
EndSplineSet
EndChar

StartChar: uni0303.cap
Encoding: 65541 -1 137
Width: 0
GlyphClass: 4
Flags: W
AnchorPoint: "Anclaje-1" 0 676 mark 0
AnchorPoint: "Anclaje-0" 0 676 mark 0
LayerCount: 2
Fore
SplineSet
62 707 m 0,0,1
 42 707 42 707 25.5 714.5 c 128,-1,2
 9 722 9 722 -5.5 731.5 c 128,-1,3
 -20 741 -20 741 -32.5 748.5 c 128,-1,4
 -45 756 -45 756 -58 756 c 0,5,6
 -72 756 -72 756 -82 744 c 128,-1,7
 -92 732 -92 732 -97 707 c 1,8,-1
 -158 707 l 1,9,10
 -152 765 -152 765 -126 797 c 128,-1,11
 -100 829 -100 829 -62 829 c 0,12,13
 -42 829 -42 829 -25.5 821.5 c 128,-1,14
 -9 814 -9 814 5.5 805 c 128,-1,15
 20 796 20 796 32.5 788.5 c 128,-1,16
 45 781 45 781 58 781 c 0,17,18
 72 781 72 781 82 792.5 c 128,-1,19
 92 804 92 804 97 829 c 1,20,-1
 158 829 l 1,21,22
 152 772 152 772 126 739.5 c 128,-1,23
 100 707 100 707 62 707 c 0,0,1
EndSplineSet
EndChar

StartChar: uni0308.cap
Encoding: 65542 -1 138
Width: 0
GlyphClass: 4
Flags: W
AnchorPoint: "Anclaje-1" 0 676 mark 0
AnchorPoint: "Anclaje-0" 0 676 mark 0
LayerCount: 2
Fore
SplineSet
-93 708 m 256,0,1
 -119 708 -119 708 -135.5 724.5 c 128,-1,2
 -152 741 -152 741 -152 767 c 256,3,4
 -152 793 -152 793 -135.5 810 c 128,-1,5
 -119 827 -119 827 -93 827 c 256,6,7
 -67 827 -67 827 -50 810 c 128,-1,8
 -33 793 -33 793 -33 767 c 256,9,10
 -33 741 -33 741 -50 724.5 c 128,-1,11
 -67 708 -67 708 -93 708 c 256,0,1
93 708 m 256,12,13
 67 708 67 708 50 724.5 c 128,-1,14
 33 741 33 741 33 767 c 256,15,16
 33 793 33 793 50 810 c 128,-1,17
 67 827 67 827 93 827 c 256,18,19
 119 827 119 827 135.5 810 c 128,-1,20
 152 793 152 793 152 767 c 256,21,22
 152 741 152 741 135.5 724.5 c 128,-1,23
 119 708 119 708 93 708 c 256,12,13
EndSplineSet
EndChar

StartChar: arrowright
Encoding: 8594 8594 139
Width: 816
Flags: W
LayerCount: 2
Fore
SplineSet
516 -16 m 1,0,-1
 460 47 l 1,1,-1
 634 206 l 1,2,-1
 35 208 l 1,3,-1
 33 298 l 1,4,-1
 634 298 l 1,5,-1
 460 457 l 1,6,-1
 516 520 l 1,7,-1
 791 254 l 1,8,-1
 791 250 l 1,9,-1
 516 -16 l 1,0,-1
EndSplineSet
EndChar
